# This file uses centimeters as units for non-parametric coordinates.

mtllib lamp_post.mtl
v 0.063599 16.239598 -0.063599
v 0.000000 16.239598 -0.089943
v -0.063599 16.239598 -0.063599
v -0.089943 16.239598 0.000000
v -0.063599 16.239598 0.063599
v 0.000000 16.239598 0.089943
v 0.063599 16.239598 0.063599
v 0.089943 16.239598 0.000000
v 0.117516 16.290547 -0.117516
v 0.000000 16.290547 -0.166193
v -0.117516 16.290547 -0.117516
v -0.166193 16.290547 0.000000
v -0.117516 16.290547 0.117516
v 0.000000 16.290547 0.166193
v 0.117516 16.290547 0.117516
v 0.166193 16.290547 0.000000
v 0.153542 16.366797 -0.153542
v 0.000000 16.366797 -0.217142
v -0.153542 16.366797 -0.153542
v -0.217142 16.366797 0.000000
v -0.153542 16.366797 0.153542
v 0.000000 16.366797 0.217142
v 0.153542 16.366797 0.153542
v 0.217142 16.366797 0.000000
v 0.166193 16.456740 -0.166193
v 0.000000 16.456740 -0.235032
v -0.166193 16.456740 -0.166193
v -0.235032 16.456740 0.000000
v -0.166193 16.456740 0.166193
v 0.000000 16.456740 0.235032
v 0.166193 16.456740 0.166193
v 0.235032 16.456740 0.000000
v 0.153542 16.546683 -0.153542
v 0.000000 16.546683 -0.217142
v -0.153542 16.546683 -0.153542
v -0.217142 16.546683 0.000000
v -0.153542 16.546683 0.153542
v 0.000000 16.546683 0.217142
v 0.153542 16.546683 0.153542
v 0.217142 16.546683 0.000000
v 0.117516 16.622933 -0.117516
v 0.000000 16.622933 -0.166193
v -0.117516 16.622933 -0.117516
v -0.166193 16.622933 0.000000
v -0.117516 16.622933 0.117516
v 0.000000 16.622933 0.166193
v 0.117516 16.622933 0.117516
v 0.166193 16.622933 0.000000
v 0.063599 16.673882 -0.063599
v 0.000000 16.673882 -0.089943
v -0.063599 16.673882 -0.063599
v -0.089943 16.673882 0.000000
v -0.063599 16.673882 0.063599
v 0.000000 16.673882 0.089943
v 0.063599 16.673882 0.063599
v 0.089943 16.673882 0.000000
v 0.000000 16.221708 0.000000
v 0.000000 16.691772 0.000000
vt 0.000000 0.125000
vt 0.125000 0.125000
vt 0.250000 0.125000
vt 0.375000 0.125000
vt 0.500000 0.125000
vt 0.625000 0.125000
vt 0.750000 0.125000
vt 0.875000 0.125000
vt 1.000000 0.125000
vt 0.000000 0.250000
vt 0.125000 0.250000
vt 0.250000 0.250000
vt 0.375000 0.250000
vt 0.500000 0.250000
vt 0.625000 0.250000
vt 0.750000 0.250000
vt 0.875000 0.250000
vt 1.000000 0.250000
vt 0.000000 0.375000
vt 0.125000 0.375000
vt 0.250000 0.375000
vt 0.375000 0.375000
vt 0.500000 0.375000
vt 0.625000 0.375000
vt 0.750000 0.375000
vt 0.875000 0.375000
vt 1.000000 0.375000
vt 0.000000 0.500000
vt 0.125000 0.500000
vt 0.250000 0.500000
vt 0.375000 0.500000
vt 0.500000 0.500000
vt 0.625000 0.500000
vt 0.750000 0.500000
vt 0.875000 0.500000
vt 1.000000 0.500000
vt 0.000000 0.625000
vt 0.125000 0.625000
vt 0.250000 0.625000
vt 0.375000 0.625000
vt 0.500000 0.625000
vt 0.625000 0.625000
vt 0.750000 0.625000
vt 0.875000 0.625000
vt 1.000000 0.625000
vt 0.000000 0.750000
vt 0.125000 0.750000
vt 0.250000 0.750000
vt 0.375000 0.750000
vt 0.500000 0.750000
vt 0.625000 0.750000
vt 0.750000 0.750000
vt 0.875000 0.750000
vt 1.000000 0.750000
vt 0.000000 0.875000
vt 0.125000 0.875000
vt 0.250000 0.875000
vt 0.375000 0.875000
vt 0.500000 0.875000
vt 0.625000 0.875000
vt 0.750000 0.875000
vt 0.875000 0.875000
vt 1.000000 0.875000
vt 0.062500 0.000000
vt 0.187500 0.000000
vt 0.312500 0.000000
vt 0.437500 0.000000
vt 0.562500 0.000000
vt 0.687500 0.000000
vt 0.812500 0.000000
vt 0.937500 0.000000
vt 0.062500 1.000000
vt 0.187500 1.000000
vt 0.312500 1.000000
vt 0.437500 1.000000
vt 0.562500 1.000000
vt 0.687500 1.000000
vt 0.812500 1.000000
vt 0.937500 1.000000
v -0.000000 16.861576 0.821084
v -0.410542 16.861576 0.711079
v -0.711079 16.861576 0.410546
v -0.821084 16.861576 0.000004
v -0.711079 16.861576 -0.410542
v -0.410542 16.861576 -0.711079
v 0.000000 16.861576 -0.821084
v 0.410542 16.861576 -0.711079
v 0.711079 16.861576 -0.410546
v 0.821084 16.861576 -0.000004
v 0.711079 16.861576 0.410542
v 0.410542 16.861576 0.711079
v -0.000000 16.470651 0.685934
v -0.342967 16.470651 0.594036
v -0.594036 16.470651 0.342969
v -0.685934 16.470651 0.000002
v -0.594036 16.470651 -0.342967
v -0.342967 16.470651 -0.594036
v 0.000000 16.470651 -0.685934
v 0.342967 16.470651 -0.594036
v 0.594036 16.470651 -0.342969
v 0.685934 16.470651 -0.000002
v 0.594036 16.470651 0.342967
v 0.342967 16.470651 0.594036
v -0.000000 17.205006 0.844123
v -0.422062 17.205006 0.731031
v -0.731031 17.205006 0.422067
v -0.844123 17.205006 0.000006
v -0.731031 17.205006 -0.422062
v -0.422062 17.205006 -0.731031
v -0.000000 17.205006 -0.844123
v 0.422062 17.205006 -0.731031
v 0.731031 17.205006 -0.422067
v 0.844123 17.205006 -0.000006
v 0.731031 17.205006 0.422062
v 0.422062 17.205006 0.731031
v 0.436699 16.236806 -0.252128
v 0.252128 16.236806 -0.436699
v -0.000000 16.236806 -0.504257
v -0.252128 16.236806 -0.436699
v -0.436699 16.236806 -0.252128
v -0.504257 16.236806 -0.000000
v -0.436699 16.236806 0.252128
v -0.252128 16.236806 0.436699
v 0.000000 16.236806 0.504257
v 0.252128 16.236806 0.436699
v 0.436699 16.236806 0.252128
v 0.504257 16.236806 0.000000
v -0.000000 17.518898 0.840456
v -0.420228 17.518898 0.727856
v -0.727856 17.518898 0.420236
v -0.840456 17.518898 0.000008
v -0.727856 17.518898 -0.420228
v -0.420228 17.518898 -0.727856
v -0.000000 17.518898 -0.840456
v 0.420228 17.518898 -0.727856
v 0.727856 17.518898 -0.420236
v 0.840456 17.518898 -0.000008
v 0.727856 17.518898 0.420228
v 0.420228 17.518898 0.727856
vt 0.635316 0.921875
vt 0.578125 0.979066
vt 0.578125 0.979066
vt 0.635316 0.921875
vt 0.500000 1.000000
vt 0.500000 1.000000
vt 0.421875 0.979066
vt 0.421875 0.979066
vt 0.364684 0.921875
vt 0.364684 0.921875
vt 0.343750 0.843750
vt 0.343750 0.843750
vt 0.364684 0.765625
vt 0.364684 0.765625
vt 0.421875 0.708434
vt 0.421875 0.708434
vt 0.500000 0.687500
vt 0.500000 0.687500
vt 0.578125 0.708434
vt 0.578125 0.708434
vt 0.635316 0.765625
vt 0.635316 0.765625
vt 0.656250 0.843750
vt 0.656250 0.843750
vt 0.421875 0.708434
vt 0.500000 0.687500
vt 0.500000 0.687500
vt 0.421875 0.708434
vt 0.364684 0.765625
vt 0.364684 0.765625
vt 0.343750 0.843750
vt 0.343750 0.843750
vt 0.364684 0.921875
vt 0.364684 0.921875
vt 0.421875 0.979066
vt 0.421875 0.979066
vt 0.500000 1.000000
vt 0.500000 1.000000
vt 0.578125 0.979066
vt 0.578125 0.979066
vt 0.635316 0.921875
vt 0.635316 0.921875
vt 0.656250 0.843750
vt 0.656250 0.843750
vt 0.635316 0.765625
vt 0.635316 0.765625
vt 0.578125 0.708434
vt 0.578125 0.708434
vt 0.500000 0.687500
vt 0.421875 0.708434
vt 0.364684 0.765625
vt 0.343750 0.843750
vt 0.364684 0.921875
vt 0.421875 0.979066
vt 0.500000 1.000000
vt 0.578125 0.979066
vt 0.635316 0.921875
vt 0.656250 0.843750
vt 0.635316 0.765625
vt 0.578125 0.708434
v 0.866025 0.041307 -0.500000
v 0.434199 0.041307 -0.751194
v 0.000000 0.041307 -1.000000
v -0.432021 0.041307 -0.746182
v -0.866025 0.041307 -0.500000
v -0.866027 0.041307 0.000000
v -0.866025 0.041307 0.500000
v -0.432431 0.041307 0.749421
v 0.000000 0.041307 1.000000
v 0.432880 0.041307 0.749500
v 0.866025 0.041307 0.500000
v 0.866027 0.041307 0.000000
v 0.866025 0.388992 -0.500000
v 0.434199 0.388992 -0.751194
v 0.000000 0.388992 -1.000000
v -0.432021 0.388992 -0.746182
v -0.866025 0.388992 -0.500000
v -0.866027 0.388992 0.000000
v -0.866025 0.388992 0.500000
v -0.432431 0.388992 0.749421
v 0.000000 0.388992 1.000000
v 0.432880 0.388992 0.749500
v 0.866025 0.388992 0.500000
v 0.866027 0.388992 0.000000
v 0.607432 0.446339 -0.350701
v 0.350701 0.446339 -0.607432
v 0.000000 0.446339 -0.701402
v -0.350701 0.446339 -0.607432
v -0.607432 0.446339 -0.350701
v -0.701402 0.446339 0.000000
v -0.607432 0.446339 0.350701
v -0.350701 0.446339 0.607432
v 0.000000 0.446339 0.701402
v 0.350701 0.446339 0.607432
v 0.607432 0.446339 0.350701
v 0.701402 0.446339 0.000000
v 0.607432 0.857145 -0.350701
v 0.350701 0.857145 -0.607432
v 0.000000 0.857145 -0.701402
v -0.350701 0.857145 -0.607432
v -0.607432 0.857145 -0.350701
v -0.701402 0.857145 0.000000
v -0.607432 0.857145 0.350701
v -0.350701 0.857145 0.607432
v 0.000000 0.857145 0.701402
v 0.350701 0.857145 0.607432
v 0.607432 0.857145 0.350701
v 0.701402 0.857145 0.000000
v 0.000049 0.041307 0.000029
v 0.562443 1.063150 -0.324727
v 0.324727 1.063150 -0.562443
v 0.000000 1.063150 -0.649454
v -0.324727 1.063150 -0.562443
v -0.562443 1.063150 -0.324727
v -0.649454 1.063150 0.000000
v -0.562443 1.063150 0.324727
v -0.324727 1.063150 0.562443
v 0.000000 1.063150 0.649454
v 0.324727 1.063150 0.562443
v 0.562443 1.063150 0.324727
v 0.649454 1.063150 0.000000
v 0.406099 3.482875 -0.234461
v 0.234461 3.482875 -0.406099
v 0.000000 3.482875 -0.468922
v -0.234461 3.482875 -0.406099
v -0.406099 3.482875 -0.234461
v -0.468922 3.482875 0.000000
v -0.406099 3.482875 0.234461
v -0.234461 3.482875 0.406099
v 0.000000 3.482875 0.468922
v 0.234461 3.482875 0.406099
v 0.406099 3.482875 0.234461
v 0.468922 3.482875 0.000000
v 0.394630 3.670706 -0.227839
v 0.227839 3.670706 -0.394630
v 0.000000 3.670706 -0.455679
v -0.227839 3.670706 -0.394630
v -0.394630 3.670706 -0.227839
v -0.455679 3.670706 0.000000
v -0.394630 3.670706 0.227839
v -0.227839 3.670706 0.394630
v 0.000000 3.670706 0.455679
v 0.227839 3.670706 0.394630
v 0.394630 3.670706 0.227839
v 0.455679 3.670706 0.000000
v 0.383354 3.917016 -0.221329
v 0.221329 3.917016 -0.383354
v 0.000000 3.917016 -0.442659
v -0.221329 3.917016 -0.383354
v -0.383354 3.917016 -0.221329
v -0.442659 3.917016 0.000000
v -0.383354 3.917016 0.221329
v -0.221329 3.917016 0.383354
v 0.000000 3.917016 0.442659
v 0.221329 3.917016 0.383354
v 0.383354 3.917016 0.221329
v 0.442659 3.917016 0.000000
v 0.394630 4.253377 -0.227839
v 0.227839 4.253377 -0.394630
v 0.000000 4.253377 -0.455679
v -0.227839 4.253377 -0.394630
v -0.394630 4.253377 -0.227839
v -0.455679 4.253377 0.000000
v -0.394630 4.253377 0.227839
v -0.227839 4.253377 0.394630
v 0.000000 4.253377 0.455679
v 0.227839 4.253377 0.394630
v 0.394630 4.253377 0.227839
v 0.455679 4.253377 0.000000
v 0.383760 4.453545 -0.221564
v 0.221564 4.453545 -0.383760
v 0.000000 4.453545 -0.443128
v -0.221564 4.453545 -0.383760
v -0.383760 4.453545 -0.221564
v -0.443128 4.453545 0.000000
v -0.383760 4.453545 0.221564
v -0.221564 4.453545 0.383760
v 0.000000 4.453545 0.443128
v 0.221564 4.453545 0.383760
v 0.383760 4.453545 0.221564
v 0.443128 4.453545 0.000000
v 0.292352 8.828968 -0.168790
v 0.168790 8.828968 -0.292352
v -0.000000 8.828968 -0.337579
v -0.168790 8.828968 -0.292352
v -0.292352 8.828968 -0.168790
v -0.337579 8.828968 0.000000
v -0.292352 8.828968 0.168790
v -0.168790 8.828968 0.292352
v -0.000000 8.828968 0.337579
v 0.168790 8.828968 0.292352
v 0.292352 8.828968 0.168790
v 0.337579 8.828968 0.000000
v 0.346169 8.968614 -0.199860
v 0.199860 8.968614 -0.346169
v -0.000000 8.968614 -0.399721
v -0.199860 8.968614 -0.346169
v -0.346169 8.968614 -0.199860
v -0.399721 8.968614 0.000000
v -0.346169 8.968614 0.199860
v -0.199860 8.968614 0.346169
v -0.000000 8.968614 0.399721
v 0.199860 8.968614 0.346169
v 0.346169 8.968614 0.199860
v 0.399721 8.968614 0.000000
v 0.318958 9.496782 -0.184150
v 0.184150 9.496782 -0.318958
v -0.000000 9.496782 -0.368301
v -0.184150 9.496782 -0.318958
v -0.318958 9.496782 -0.184150
v -0.368301 9.496782 0.000000
v -0.318958 9.496782 0.184150
v -0.184150 9.496782 0.318958
v -0.000000 9.496782 0.368301
v 0.184150 9.496782 0.318958
v 0.318958 9.496782 0.184150
v 0.368301 9.496782 0.000000
v 0.303322 9.657921 -0.175123
v 0.175123 9.657921 -0.303322
v -0.000000 9.657921 -0.350246
v -0.175123 9.657921 -0.303322
v -0.303322 9.657921 -0.175123
v -0.350246 9.657921 0.000000
v -0.303322 9.657921 0.175123
v -0.175123 9.657921 0.303322
v -0.000000 9.657921 0.350246
v 0.175123 9.657921 0.303322
v 0.303322 9.657921 0.175123
v 0.350246 9.657921 0.000000
v 0.279312 9.844022 -0.161261
v 0.161261 9.844022 -0.279312
v -0.000000 9.844022 -0.322522
v -0.161261 9.844022 -0.279312
v -0.279312 9.844022 -0.161261
v -0.322522 9.844022 0.000000
v -0.279312 9.844022 0.161261
v -0.161261 9.844022 0.279312
v -0.000000 9.844022 0.322522
v 0.161261 9.844022 0.279312
v 0.279312 9.844022 0.161261
v 0.322522 9.844022 0.000000
v 0.230003 14.487756 -0.132792
v 0.132792 14.487756 -0.230003
v -0.000000 14.487756 -0.265584
v -0.132792 14.487756 -0.230003
v -0.230003 14.487756 -0.132792
v -0.265584 14.487756 0.000000
v -0.230003 14.487756 0.132792
v -0.132792 14.487756 0.230003
v -0.000000 14.487756 0.265584
v 0.132792 14.487756 0.230003
v 0.230003 14.487756 0.132792
v 0.265584 14.487756 0.000000
v 0.230003 14.588968 -0.132792
v 0.132792 14.588968 -0.230003
v -0.000000 14.588968 -0.265584
v -0.132792 14.588968 -0.230003
v -0.230003 14.588968 -0.132792
v -0.265584 14.588968 0.000000
v -0.230003 14.588968 0.132792
v -0.132792 14.588968 0.230003
v -0.000000 14.588968 0.265584
v 0.132792 14.588968 0.230003
v 0.230003 14.588968 0.132792
v 0.265584 14.588968 0.000000
v 0.230003 14.724916 -0.132792
v 0.132792 14.724916 -0.230003
v -0.000000 14.724916 -0.265584
v -0.132792 14.724916 -0.230003
v -0.230003 14.724916 -0.132792
v -0.265584 14.724916 0.000000
v -0.230003 14.724916 0.132792
v -0.132792 14.724916 0.230003
v -0.000000 14.724916 0.265584
v 0.132792 14.724916 0.230003
v 0.230003 14.724916 0.132792
v 0.265584 14.724916 0.000000
v 0.275837 14.834234 -0.159255
v 0.159255 14.834234 -0.275837
v -0.000000 14.834234 -0.318509
v -0.159255 14.834234 -0.275837
v -0.275837 14.834234 -0.159255
v -0.318509 14.834234 0.000000
v -0.275837 14.834234 0.159255
v -0.159255 14.834234 0.275837
v -0.000000 14.834234 0.318509
v 0.159255 14.834234 0.275837
v 0.275837 14.834234 0.159255
v 0.318509 14.834234 0.000000
v 0.251687 15.345230 -0.145312
v 0.145312 15.345230 -0.251687
v -0.000000 15.345230 -0.290623
v -0.145312 15.345230 -0.251687
v -0.251687 15.345230 -0.145312
v -0.290623 15.345230 0.000000
v -0.251687 15.345230 0.145312
v -0.145312 15.345230 0.251687
v -0.000000 15.345230 0.290623
v 0.145312 15.345230 0.251687
v 0.251687 15.345230 0.145312
v 0.290623 15.345230 0.000000
v 0.206084 15.375810 -0.118982
v 0.118982 15.375810 -0.206084
v -0.000000 15.375810 -0.237965
v -0.118982 15.375810 -0.206084
v -0.206084 15.375810 -0.118982
v -0.237965 15.375810 0.000000
v -0.206084 15.375810 0.118982
v -0.118982 15.375810 0.206084
v -0.000000 15.375810 0.237965
v 0.118982 15.375810 0.206084
v 0.206084 15.375810 0.118982
v 0.237965 15.375810 0.000000
v 0.181827 15.689712 -0.104978
v 0.104978 15.689712 -0.181827
v -0.000000 15.689712 -0.209956
v -0.104978 15.689712 -0.181827
v -0.181827 15.689712 -0.104978
v -0.209956 15.689712 0.000000
v -0.181827 15.689712 0.104978
v -0.104978 15.689712 0.181827
v -0.000000 15.689712 0.209956
v 0.104978 15.689712 0.181827
v 0.181827 15.689712 0.104978
v 0.209956 15.689712 0.000000
v 0.515228 16.015949 -0.297467
v 0.297467 16.015949 -0.515228
v -0.000000 16.015949 -0.594934
v -0.297467 16.015949 -0.515228
v -0.515228 16.015949 -0.297467
v -0.594934 16.015949 0.000000
v -0.515228 16.015949 0.297467
v -0.297467 16.015949 0.515228
v -0.000000 16.015949 0.594934
v 0.297467 16.015949 0.515228
v 0.515228 16.015949 0.297467
v 0.594934 16.015949 0.000000
v 0.617926 16.108842 -0.356760
v 0.356760 16.108842 -0.617926
v -0.000000 16.108842 -0.713520
v -0.356760 16.108842 -0.617926
v -0.617926 16.108842 -0.356760
v -0.713520 16.108842 0.000000
v -0.617926 16.108842 0.356760
v -0.356760 16.108842 0.617926
v -0.000000 16.108842 0.713520
v 0.356760 16.108842 0.617926
v 0.617926 16.108842 0.356760
v 0.713520 16.108842 0.000000
v 0.206637 15.790229 0.357906
v -0.000000 15.790229 0.413275
v -0.206637 15.790229 0.357906
v -0.357906 15.790229 0.206637
v -0.413275 15.790229 0.000000
v -0.357906 15.790229 -0.206637
v -0.206637 15.790229 -0.357906
v -0.000000 15.790229 -0.413275
v 0.206637 15.790229 -0.357906
v 0.357906 15.790229 -0.206637
v 0.413275 15.790229 0.000000
v 0.357906 15.790229 0.206637
v 0.519701 16.215017 -0.300050
v 0.300050 16.215017 -0.519701
v -0.000000 16.215017 -0.600099
v -0.300050 16.215017 -0.519701
v -0.519701 16.215017 -0.300050
v -0.600099 16.215017 0.000000
v -0.519701 16.215017 0.300050
v -0.300050 16.215017 0.519701
v -0.000000 16.215017 0.600099
v 0.300050 16.215017 0.519701
v 0.519701 16.215017 0.300050
v 0.600099 16.215017 0.000000
v 0.519701 16.236339 -0.300050
v 0.300050 16.236339 -0.519701
v -0.000000 16.236339 -0.600099
v -0.300050 16.236339 -0.519701
v -0.519701 16.236339 -0.300050
v -0.600099 16.236339 0.000000
v -0.519701 16.236339 0.300050
v -0.300050 16.236339 0.519701
v -0.000000 16.236339 0.600099
v 0.300050 16.236339 0.519701
v 0.519701 16.236339 0.300050
v 0.600099 16.236339 0.000000
v 0.677286 0.902797 -0.391031
v 0.391031 0.902797 -0.677286
v 0.376758 1.049115 -0.652565
v 0.652565 1.049115 -0.376758
v 0.000000 0.902797 -0.782063
v 0.000000 1.049115 -0.753517
v -0.391031 0.902797 -0.677286
v -0.376758 1.049115 -0.652565
v -0.677286 0.902797 -0.391031
v -0.652565 1.049115 -0.376758
v -0.782063 0.902797 0.000000
v -0.753517 1.049115 0.000000
v -0.677286 0.902797 0.391031
v -0.652565 1.049115 0.376758
v -0.391031 0.902797 0.677286
v -0.376758 1.049115 0.652565
v -0.000000 0.902797 0.782063
v -0.000000 1.049115 0.753517
v 0.391031 0.902797 0.677286
v 0.376758 1.049115 0.652565
v 0.677286 0.902797 0.391031
v 0.652565 1.049115 0.376758
v 0.782063 0.902797 0.000000
v 0.753517 1.049115 0.000000
v 0.685703 0.976687 0.395891
v 0.395891 0.976687 0.685703
v -0.000000 0.976687 0.791782
v -0.395891 0.976687 0.685703
v -0.685703 0.976687 0.395891
v -0.791782 0.976687 -0.000000
v -0.685703 0.976687 -0.395891
v -0.395891 0.976687 -0.685703
v 0.000000 0.976687 -0.791782
v 0.395891 0.976687 -0.685703
v 0.685703 0.976687 -0.395891
v 0.791782 0.976687 -0.000000
v 0.449242 3.514946 -0.259370
v 0.259370 3.514946 -0.449242
v 0.259370 3.638635 -0.449242
v 0.449242 3.638635 -0.259370
v 0.000000 3.514946 -0.518740
v 0.000000 3.638635 -0.518740
v -0.259370 3.514946 -0.449242
v -0.259370 3.638635 -0.449242
v -0.449242 3.514946 -0.259370
v -0.449242 3.638635 -0.259370
v -0.518740 3.514946 0.000000
v -0.518740 3.638635 0.000000
v -0.449242 3.514946 0.259370
v -0.449242 3.638635 0.259370
v -0.259370 3.514946 0.449242
v -0.259370 3.638635 0.449242
v 0.000000 3.514946 0.518740
v 0.000000 3.638635 0.518740
v 0.259370 3.514946 0.449242
v 0.259370 3.638635 0.449242
v 0.449242 3.514946 0.259370
v 0.449242 3.638635 0.259370
v 0.518740 3.514946 0.000000
v 0.518740 3.638635 0.000000
v 0.531481 3.576998 -0.000000
v 0.460276 3.576998 0.265740
v 0.265740 3.576998 0.460276
v 0.000000 3.576998 0.531481
v -0.265740 3.576998 0.460276
v -0.460276 3.576998 0.265740
v -0.531481 3.576998 -0.000000
v -0.460276 3.576998 -0.265740
v -0.265740 3.576998 -0.460276
v 0.000000 3.576998 -0.531481
v 0.265740 3.576998 -0.460276
v 0.460276 3.576998 -0.265740
v 0.468484 3.957802 -0.270480
v 0.270480 3.957802 -0.468484
v 0.270480 4.212591 -0.468484
v 0.468484 4.212591 -0.270480
v 0.000000 3.957802 -0.540959
v 0.000000 4.212591 -0.540959
v -0.270480 3.957802 -0.468484
v -0.270480 4.212591 -0.468484
v -0.468484 3.957802 -0.270480
v -0.468484 4.212591 -0.270480
v -0.540959 3.957802 0.000000
v -0.540959 4.212591 0.000000
v -0.468484 3.957802 0.270480
v -0.468484 4.212591 0.270480
v -0.270480 3.957802 0.468484
v -0.270480 4.212591 0.468484
v 0.000000 3.957802 0.540959
v 0.000000 4.212591 0.540959
v 0.270480 3.957802 0.468484
v 0.270480 4.212591 0.468484
v 0.468484 3.957802 0.270480
v 0.468484 4.212591 0.270480
v 0.540959 3.957802 0.000000
v 0.540959 4.212591 0.000000
v 0.561305 4.085197 -0.000000
v 0.486105 4.085197 0.280653
v 0.280653 4.085197 0.486105
v 0.000000 4.085197 0.561305
v -0.280653 4.085197 0.486105
v -0.486105 4.085197 0.280653
v -0.561305 4.085197 -0.000000
v -0.486105 4.085197 -0.280653
v -0.280653 4.085197 -0.486105
v 0.000000 4.085197 -0.561305
v 0.280653 4.085197 -0.486105
v 0.486105 4.085197 -0.280653
v 0.443128 4.281951 0.000000
v 0.383760 4.281951 0.221564
v 0.221564 4.281951 0.383760
v 0.000000 4.281951 0.443128
v -0.221564 4.281951 0.383760
v -0.383760 4.281951 0.221564
v -0.443128 4.281951 0.000000
v -0.383760 4.281951 -0.221564
v -0.221564 4.281951 -0.383760
v 0.000000 4.281951 -0.443128
v 0.221564 4.281951 -0.383760
v 0.383760 4.281951 -0.221564
v 0.488450 4.305959 0.000000
v 0.423010 4.305959 0.244225
v 0.488450 4.429535 0.000000
v 0.423010 4.429535 0.244225
v 0.244225 4.305959 0.423010
v 0.244225 4.429535 0.423010
v 0.000000 4.305959 0.488450
v 0.000000 4.429535 0.488450
v -0.244225 4.305959 0.423010
v -0.244225 4.429535 0.423010
v -0.423010 4.305959 0.244225
v -0.423010 4.429535 0.244225
v -0.488450 4.305959 0.000000
v -0.488450 4.429535 0.000000
v -0.423010 4.305959 -0.244225
v -0.423010 4.429535 -0.244225
v -0.244225 4.305959 -0.423010
v -0.244225 4.429535 -0.423010
v 0.000000 4.305959 -0.488450
v 0.000000 4.429535 -0.488450
v 0.244225 4.305959 -0.423010
v 0.244225 4.429535 -0.423010
v 0.423010 4.305959 -0.244225
v 0.423010 4.429535 -0.244225
v 0.502822 4.367748 -0.000000
v 0.435457 4.367748 0.251411
v 0.251411 4.367748 0.435457
v 0.000000 4.367748 0.502822
v -0.251411 4.367748 0.435457
v -0.435457 4.367748 0.251411
v -0.502822 4.367748 -0.000000
v -0.435457 4.367748 -0.251411
v -0.251411 4.367748 -0.435457
v 0.000000 4.367748 -0.502822
v 0.251411 4.367748 -0.435457
v 0.435457 4.367748 -0.251411
v 0.372795 9.006973 0.000000
v 0.322850 9.006973 0.186397
v 0.186397 9.006973 0.322850
v -0.000000 9.006973 0.372795
v -0.186397 9.006973 0.322850
v -0.322850 9.006973 0.186397
v -0.372795 9.006973 0.000000
v -0.322850 9.006973 -0.186397
v -0.186397 9.006973 -0.322850
v -0.000000 9.006973 -0.372795
v 0.186397 9.006973 -0.322850
v 0.322850 9.006973 -0.186397
v 0.364375 9.151811 0.000000
v 0.315558 9.151811 0.182188
v 0.182188 9.151811 0.315558
v -0.000000 9.151811 0.364375
v -0.182188 9.151811 0.315558
v -0.315558 9.151811 0.182188
v -0.364375 9.151811 0.000000
v -0.315558 9.151811 -0.182188
v -0.182188 9.151811 -0.315558
v -0.000000 9.151811 -0.364375
v 0.182188 9.151811 -0.315558
v 0.315558 9.151811 -0.182188
v 0.403779 9.079681 0.000000
v 0.349683 9.079681 0.201889
v 0.201889 9.079681 0.349683
v -0.000000 9.079681 0.403779
v -0.201889 9.079681 0.349683
v -0.349683 9.079681 0.201889
v -0.403779 9.079681 0.000000
v -0.349683 9.079681 -0.201889
v -0.201889 9.079681 -0.349683
v -0.000000 9.079681 -0.403779
v 0.201889 9.079681 -0.349683
v 0.349683 9.079681 -0.201889
v 0.341499 9.561010 -0.197164
v 0.197164 9.561010 -0.341499
v 0.197164 9.646334 -0.341499
v 0.341499 9.646334 -0.197164
v 0.000000 9.561010 -0.394329
v 0.000000 9.646334 -0.394329
v -0.197164 9.561010 -0.341499
v -0.197164 9.646334 -0.341499
v -0.341499 9.561010 -0.197164
v -0.341499 9.646334 -0.197164
v -0.394329 9.561010 0.000000
v -0.394329 9.646334 0.000000
v -0.341499 9.561010 0.197164
v -0.341499 9.646334 0.197164
v -0.197164 9.561010 0.341499
v -0.197164 9.646334 0.341499
v 0.000000 9.561010 0.394329
v 0.000000 9.646334 0.394329
v 0.197164 9.561010 0.341499
v 0.197164 9.646334 0.341499
v 0.341499 9.561010 0.197164
v 0.341499 9.646334 0.197164
v 0.394329 9.561010 0.000000
v 0.394329 9.646334 0.000000
v 0.380295 9.712501 0.000000
v 0.329346 9.712501 0.190148
v 0.190148 9.712501 0.329346
v -0.000000 9.712501 0.380295
v -0.190148 9.712501 0.329346
v -0.329346 9.712501 0.190148
v -0.380295 9.712501 0.000000
v -0.329346 9.712501 -0.190148
v -0.190148 9.712501 -0.329346
v -0.000000 9.712501 -0.380295
v 0.190148 9.712501 -0.329346
v 0.329346 9.712501 -0.190148
v 0.253444 14.505777 -0.146326
v 0.146326 14.505777 -0.253443
v 0.146326 14.570947 -0.253443
v 0.253444 14.570947 -0.146326
v 0.000000 14.505777 -0.292651
v 0.000000 14.570947 -0.292651
v -0.146326 14.505777 -0.253443
v -0.146326 14.570947 -0.253443
v -0.253444 14.505777 -0.146326
v -0.253444 14.570947 -0.146326
v -0.292651 14.505777 0.000000
v -0.292651 14.570947 0.000000
v -0.253444 14.505777 0.146326
v -0.253444 14.570947 0.146326
v -0.146326 14.505777 0.253443
v -0.146326 14.570947 0.253443
v 0.000000 14.505777 0.292651
v 0.000000 14.570947 0.292651
v 0.146326 14.505777 0.253443
v 0.146326 14.570947 0.253443
v 0.253444 14.505777 0.146326
v 0.253444 14.570947 0.146326
v 0.292651 14.505777 0.000000
v 0.292651 14.570947 0.000000
v 0.305195 14.538362 -0.000000
v 0.264307 14.538362 0.152598
v 0.152598 14.538362 0.264307
v 0.000000 14.538362 0.305195
v -0.152598 14.538362 0.264307
v -0.264307 14.538362 0.152598
v -0.305195 14.538362 -0.000000
v -0.264307 14.538362 -0.152598
v -0.152598 14.538362 -0.264307
v 0.000000 14.538362 -0.305195
v 0.152598 14.538362 -0.264307
v 0.264307 14.538362 -0.152598
v 0.290437 14.606796 -0.167684
v 0.167684 14.606796 -0.290437
v 0.167684 14.707090 -0.290437
v 0.290437 14.707090 -0.167684
v 0.000000 14.606796 -0.335368
v 0.000000 14.707090 -0.335368
v -0.167684 14.606796 -0.290437
v -0.167684 14.707090 -0.290437
v -0.290437 14.606796 -0.167684
v -0.290437 14.707090 -0.167684
v -0.335368 14.606796 0.000000
v -0.335368 14.707090 0.000000
v -0.290437 14.606796 0.167684
v -0.290437 14.707090 0.167684
v -0.167684 14.606796 0.290437
v -0.167684 14.707090 0.290437
v 0.000000 14.606796 0.335368
v 0.000000 14.707090 0.335368
v 0.167684 14.606796 0.290437
v 0.167684 14.707090 0.290437
v 0.290437 14.606796 0.167684
v 0.290437 14.707090 0.167684
v 0.335368 14.606796 0.000000
v 0.335368 14.707090 0.000000
v 0.355989 14.656944 -0.000000
v 0.308295 14.656944 0.177994
v 0.177994 14.656944 0.308295
v 0.000000 14.656944 0.355989
v -0.177994 14.656944 0.308295
v -0.308295 14.656944 0.177994
v -0.355989 14.656944 -0.000000
v -0.308295 14.656944 -0.177994
v -0.177994 14.656944 -0.308295
v 0.000000 14.656944 -0.355989
v 0.177994 14.656944 -0.308295
v 0.308295 14.656944 -0.177994
v 0.274507 14.891603 -0.158487
v 0.316974 14.891603 0.000000
v 0.274507 14.891603 0.158487
v 0.158487 14.891603 0.274507
v -0.000000 14.891603 0.316974
v -0.158487 14.891603 0.274507
v -0.274507 14.891603 0.158487
v -0.316974 14.891603 0.000000
v -0.274507 14.891603 -0.158487
v -0.158487 14.891603 -0.274507
v -0.000000 14.891603 -0.316974
v 0.158487 14.891603 -0.274507
v 0.295373 14.866483 -0.170534
v 0.170534 14.866483 -0.295373
v 0.169766 14.892913 -0.294043
v 0.294043 14.892913 -0.169766
v 0.000000 14.866483 -0.341067
v 0.000000 14.892913 -0.339532
v -0.170533 14.866483 -0.295373
v -0.169766 14.892913 -0.294044
v -0.295373 14.866483 -0.170534
v -0.294043 14.892913 -0.169766
v -0.341067 14.866483 0.000000
v -0.339532 14.892913 0.000000
v -0.295373 14.866483 0.170534
v -0.294043 14.892913 0.169766
v -0.170534 14.866483 0.295373
v -0.169766 14.892913 0.294043
v -0.000000 14.866483 0.341067
v -0.000000 14.892913 0.339532
v 0.170533 14.866483 0.295373
v 0.169766 14.892913 0.294044
v 0.295373 14.866483 0.170534
v 0.294043 14.892913 0.169766
v 0.341067 14.866483 -0.000000
v 0.339532 14.892913 -0.000000
v 0.350633 9.335836 0.000000
v 0.303658 9.335836 0.175317
v 0.175317 9.335836 0.303658
v -0.000000 9.335836 0.350633
v -0.175317 9.335836 0.303658
v -0.303658 9.335836 0.175317
v -0.350633 9.335836 0.000000
v -0.303658 9.335836 -0.175317
v -0.175317 9.335836 -0.303658
v -0.000000 9.335836 -0.350633
v 0.175317 9.335836 -0.303658
v 0.303658 9.335836 -0.175317
v 0.294114 15.285133 0.000000
v 0.254710 15.285133 0.147057
v 0.147057 15.285133 0.254710
v -0.000000 15.285133 0.294114
v -0.147057 15.285133 0.254710
v -0.254710 15.285133 0.147057
v -0.294114 15.285133 0.000000
v -0.254710 15.285133 -0.147057
v -0.147057 15.285133 -0.254710
v -0.000000 15.285133 -0.294114
v 0.147057 15.285133 -0.254710
v 0.254710 15.285133 -0.147057
v 0.306366 15.317001 0.000000
v 0.265321 15.317001 0.153183
v 0.153183 15.317001 0.265321
v -0.000000 15.317001 0.306366
v -0.153183 15.317001 0.265321
v -0.265321 15.317001 0.153183
v -0.306366 15.317001 0.000000
v -0.265321 15.317001 -0.153183
v -0.153183 15.317001 -0.265321
v -0.000000 15.317001 -0.306366
v 0.153183 15.317001 -0.265321
v 0.265321 15.317001 -0.153183
v 0.374487 16.235601 -0.216210
v 0.216210 16.235601 -0.374487
v -0.000000 16.235601 -0.432421
v -0.216210 16.235601 -0.374487
v -0.374487 16.235601 -0.216210
v -0.432421 16.235601 0.000000
v -0.374487 16.235601 0.216210
v -0.216210 16.235601 0.374487
v -0.000000 16.235601 0.432421
v 0.216210 16.235601 0.374487
v 0.374487 16.235601 0.216210
v 0.432421 16.235601 0.000000
v 0.727856 17.518897 -0.420236
v 0.420228 17.518897 -0.727856
v -0.000000 17.518897 -0.840456
v -0.420228 17.518897 -0.727856
v -0.727856 17.518897 -0.420228
v -0.840456 17.518897 0.000008
v -0.727856 17.518897 0.420236
v -0.420228 17.518897 0.727856
v -0.000000 17.518897 0.840456
v 0.420228 17.518897 0.727856
v 0.727856 17.518897 0.420228
v 0.840456 17.518897 -0.000008
v 0.758601 17.550279 -0.437987
v 0.437979 17.550279 -0.758601
v 0.000000 17.550279 -0.875958
v -0.437979 17.550279 -0.758601
v -0.758601 17.550279 -0.437979
v -0.875958 17.550279 0.000008
v -0.758601 17.550279 0.437987
v -0.437979 17.550279 0.758601
v 0.000000 17.550279 0.875958
v 0.437979 17.550279 0.758601
v 0.758601 17.550279 0.437979
v 0.875958 17.550279 -0.000008
v 0.808562 17.631864 -0.466832
v 0.466824 17.631864 -0.808562
v 0.000000 17.631864 -0.933649
v -0.466824 17.631864 -0.808562
v -0.808562 17.631864 -0.466824
v -0.933649 17.631864 0.000009
v -0.808562 17.631864 0.466832
v -0.466824 17.631864 0.808562
v 0.000000 17.631864 0.933649
v 0.466824 17.631864 0.808562
v 0.808562 17.631864 0.466824
v 0.933649 17.631864 -0.000009
v 0.758601 17.707176 -0.437987
v 0.437979 17.707176 -0.758601
v 0.000000 17.707176 -0.875958
v -0.437979 17.707176 -0.758601
v -0.758601 17.707176 -0.437979
v -0.875958 17.707176 0.000008
v -0.758601 17.707176 0.437987
v -0.437979 17.707176 0.758601
v 0.000000 17.707176 0.875958
v 0.437979 17.707176 0.758601
v 0.758601 17.707176 0.437979
v 0.875958 17.707176 -0.000008
v 0.896955 17.895452 -0.517867
v 0.517858 17.895452 -0.896955
v 0.000000 17.895452 -1.035716
v -0.517858 17.895452 -0.896955
v -0.896955 17.895452 -0.517858
v -1.035716 17.895452 0.000009
v -0.896955 17.895452 0.517867
v -0.517858 17.895452 0.896955
v 0.000000 17.895452 1.035716
v 0.517858 17.895452 0.896955
v 0.896955 17.895452 0.517858
v 1.035716 17.895452 -0.000009
v 0.843151 18.008418 -0.486803
v 0.486794 18.008418 -0.843151
v 0.000000 18.008418 -0.973588
v -0.486794 18.008418 -0.843151
v -0.843151 18.008418 -0.486794
v -0.973588 18.008418 0.000009
v -0.843151 18.008418 0.486803
v -0.486794 18.008418 0.843151
v 0.000000 18.008418 0.973588
v 0.486794 18.008418 0.843151
v 0.843151 18.008418 0.486794
v 0.973588 18.008418 -0.000009
v 0.674052 18.083728 -0.389171
v 0.389164 18.083728 -0.674052
v 0.000000 18.083728 -0.778329
v -0.389164 18.083728 -0.674052
v -0.674052 18.083728 -0.389164
v -0.778329 18.083728 0.000007
v -0.674052 18.083728 0.389171
v -0.389164 18.083728 0.674052
v 0.000000 18.083728 0.778329
v 0.389164 18.083728 0.674052
v 0.674052 18.083728 0.389164
v 0.778329 18.083728 -0.000007
v 0.620247 18.259452 -0.358107
v 0.358100 18.259452 -0.620247
v 0.000000 18.259452 -0.716200
v -0.358100 18.259452 -0.620247
v -0.620247 18.259452 -0.358100
v -0.716200 18.259452 0.000007
v -0.620247 18.259452 0.358107
v -0.358100 18.259452 0.620247
v 0.000000 18.259452 0.716200
v 0.358100 18.259452 0.620247
v 0.620247 18.259452 0.358100
v 0.716200 18.259452 -0.000007
v 0.577972 18.272005 -0.333699
v 0.333693 18.272005 -0.577972
v 0.000000 18.272005 -0.667386
v -0.333693 18.272005 -0.577972
v -0.577972 18.272005 -0.333693
v -0.667386 18.272005 0.000006
v -0.577972 18.272005 0.333699
v -0.333693 18.272005 0.577972
v 0.000000 18.272005 0.667386
v 0.333693 18.272005 0.577972
v 0.577972 18.272005 0.333693
v 0.667386 18.272005 -0.000006
v 0.404881 18.629085 -0.233762
v 0.233758 18.629085 -0.404881
v 0.000000 18.629085 -0.467516
v -0.233758 18.629085 -0.404881
v -0.404881 18.629085 -0.233758
v -0.467516 18.629085 0.000004
v -0.404881 18.629085 0.233762
v -0.233758 18.629085 0.404881
v 0.000000 18.629085 0.467516
v 0.233758 18.629085 0.404881
v 0.404881 18.629085 0.233758
v 0.467516 18.629085 -0.000004
v 0.243617 18.805456 -0.140655
v 0.140652 18.805456 -0.243617
v 0.000000 18.805456 -0.281304
v -0.140652 18.805456 -0.243617
v -0.243617 18.805456 -0.140652
v -0.281304 18.805456 0.000003
v -0.243617 18.805456 0.140655
v -0.140652 18.805456 0.243617
v 0.000000 18.805456 0.281304
v 0.140652 18.805456 0.243617
v 0.243617 18.805456 0.140652
v 0.281304 18.805456 -0.000003
v 0.162910 18.918420 -0.094058
v 0.094056 18.918420 -0.162910
v 0.000000 18.918420 -0.188113
v -0.094056 18.918420 -0.162910
v -0.162910 18.918420 -0.094056
v -0.188113 18.918420 0.000002
v -0.162910 18.918420 0.094058
v -0.094056 18.918420 0.162910
v 0.000000 18.918420 0.188113
v 0.094056 18.918420 0.162910
v 0.162910 18.918420 0.094056
v 0.188113 18.918420 -0.000002
v 0.101419 18.943525 -0.058556
v 0.058555 18.943525 -0.101419
v 0.000000 18.943525 -0.117109
v -0.058555 18.943525 -0.101419
v -0.101419 18.943525 -0.058555
v -0.117109 18.943525 0.000001
v -0.101419 18.943525 0.058556
v -0.058555 18.943525 0.101419
v 0.000000 18.943525 0.117109
v 0.058555 18.943525 0.101419
v 0.101419 18.943525 0.058555
v 0.117109 18.943525 -0.000001
v 0.101419 19.031385 -0.058556
v 0.058555 19.031385 -0.101419
v 0.000000 19.031385 -0.117109
v -0.058555 19.031385 -0.101419
v -0.101419 19.031385 -0.058555
v -0.117109 19.031385 0.000001
v -0.101419 19.031385 0.058556
v -0.058555 19.031385 0.101419
v 0.000000 19.031385 0.117109
v 0.058555 19.031385 0.101419
v 0.101419 19.031385 0.058555
v 0.117109 19.031385 -0.000001
v 0.101419 19.075319 -0.058556
v 0.058555 19.075319 -0.101419
v 0.000000 19.075319 -0.117109
v -0.058555 19.075319 -0.101419
v -0.101419 19.075319 -0.058555
v -0.117109 19.075319 0.000001
v -0.101419 19.075319 0.058556
v -0.058555 19.075319 0.101419
v 0.000000 19.075319 0.117109
v 0.058555 19.075319 0.101419
v 0.101419 19.075319 0.058555
v 0.117109 19.075319 -0.000001
v 0.101419 19.150630 -0.058556
v 0.058555 19.150630 -0.101419
v 0.000000 19.150630 -0.117109
v -0.058555 19.150630 -0.101419
v -0.101419 19.150630 -0.058555
v -0.117109 19.150630 0.000001
v -0.101419 19.150630 0.058556
v -0.058555 19.150630 0.101419
v 0.000000 19.150630 0.117109
v 0.058555 19.150630 0.101419
v 0.101419 19.150630 0.058555
v 0.117109 19.150630 -0.000001
v 0.193655 19.200836 -0.111809
v 0.111807 19.200836 -0.193655
v 0.000000 19.200836 -0.223614
v -0.111807 19.200836 -0.193655
v -0.193655 19.200836 -0.111807
v -0.223614 19.200836 0.000002
v -0.193655 19.200836 0.111809
v -0.111807 19.200836 0.193655
v 0.000000 19.200836 0.223614
v 0.111807 19.200836 0.193655
v 0.193655 19.200836 0.111807
v 0.223614 19.200836 -0.000002
v 0.162910 19.257316 -0.094058
v 0.094056 19.257316 -0.162910
v 0.000000 19.257316 -0.188113
v -0.094056 19.257316 -0.162910
v -0.162910 19.257316 -0.094056
v -0.188113 19.257316 0.000002
v -0.162910 19.257316 0.094058
v -0.094056 19.257316 0.162910
v 0.000000 19.257316 0.188113
v 0.094056 19.257316 0.162910
v 0.162910 19.257316 0.094056
v 0.188113 19.257316 -0.000002
v 0.134597 19.269870 -0.074088
v 0.080362 19.269870 -0.128322
v 0.006276 19.269870 -0.148173
v -0.067811 19.269870 -0.128322
v -0.122046 19.269870 -0.074087
v -0.141897 19.269870 0.000001
v -0.122046 19.269870 0.074088
v -0.067811 19.269870 0.128322
v 0.006276 19.269870 0.148173
v 0.080362 19.269870 0.128322
v 0.134597 19.269870 0.074087
v 0.154449 19.269870 -0.000001
v 0.092323 19.344438 -0.049680
v 0.055955 19.344438 -0.086047
v 0.006276 19.344438 -0.099358
v -0.043403 19.344438 -0.086047
v -0.079771 19.344438 -0.049679
v -0.093082 19.344438 0.000001
v -0.079771 19.344438 0.049680
v -0.043403 19.344438 0.086047
v 0.006276 19.344438 0.099358
v 0.055955 19.344438 0.086047
v 0.092323 19.344438 0.049679
v 0.105634 19.344438 -0.000001
v 0.068614 19.361028 -0.035992
v 0.042267 19.361028 -0.062339
v 0.006276 19.361028 -0.071982
v -0.029715 19.361028 -0.062339
v -0.056063 19.361028 -0.035991
v -0.065707 19.361028 0.000001
v -0.056063 19.361028 0.035992
v -0.029715 19.361028 0.062339
v 0.006276 19.361028 0.071982
v 0.042267 19.361028 0.062339
v 0.068614 19.361028 0.035991
v 0.078258 19.361028 -0.000001
v 0.102483 19.438459 -0.055551
v 0.061821 19.438459 -0.096212
v 0.006276 19.438459 -0.111091
v -0.049270 19.438459 -0.096205
v -0.089932 19.438459 -0.055543
v -0.104815 19.438459 0.000001
v -0.089932 19.438459 0.055546
v -0.049270 19.438459 0.096207
v 0.006276 19.438459 0.111091
v 0.061821 19.438459 0.096210
v 0.102483 19.438459 0.055548
v 0.117367 19.438459 -0.000001
v 0.121280 19.539007 -0.066405
v 0.072673 19.539007 -0.115010
v 0.006276 19.539007 -0.132795
v -0.060122 19.539007 -0.115001
v -0.108728 19.539007 -0.066395
v -0.126519 19.539007 0.000001
v -0.108728 19.539007 0.066399
v -0.060122 19.539007 0.115004
v 0.006276 19.539007 0.132795
v 0.072673 19.539007 0.115007
v 0.121280 19.539007 0.066401
v 0.139071 19.539007 -0.000001
v 0.102483 19.650308 -0.055551
v 0.061821 19.650308 -0.096212
v 0.006276 19.761392 0.000000
v 0.006276 19.650308 -0.111091
v -0.049270 19.650308 -0.096205
v -0.089932 19.650308 -0.055543
v -0.104815 19.650308 0.000001
v -0.089932 19.650308 0.055546
v -0.049270 19.650308 0.096207
v 0.006276 19.650308 0.111091
v 0.061821 19.650308 0.096210
v 0.102483 19.650308 0.055548
v 0.117367 19.650308 -0.000001
v 0.000000 18.434841 0.558769
v -0.279385 18.434841 0.483908
v -0.483908 18.434841 0.279390
v -0.558769 18.434841 0.000005
v -0.483908 18.434841 -0.279385
v -0.279385 18.434841 -0.483908
v 0.000000 18.434841 -0.558769
v 0.279385 18.434841 -0.483908
v 0.483908 18.434841 -0.279390
v 0.558769 18.434841 -0.000005
v 0.483908 18.434841 0.279385
v 0.279385 18.434841 0.483908
v 0.347023 16.078021 0.601061
v -0.000000 16.078021 0.694046
v -0.347023 16.078021 0.601061
v -0.601061 16.078021 0.347023
v -0.694046 16.078021 0.000000
v -0.601061 16.078021 -0.347023
v -0.347023 16.078021 -0.601061
v -0.000000 16.078021 -0.694046
v 0.347023 16.078021 -0.601061
v 0.601061 16.078021 -0.347023
v 0.694046 16.078021 0.000000
v 0.601061 16.078021 0.347023
v 0.383565 16.235601 -0.329047
v 0.329047 16.235601 -0.383565
v 0.302460 16.235601 -0.344667
v 0.344667 16.235601 -0.302460
v -0.093181 16.235601 -0.496701
v -0.167653 16.235601 -0.476746
v -0.147260 16.235601 -0.434271
v -0.089604 16.235601 -0.449720
v -0.476746 16.235601 -0.167653
v -0.496701 16.235601 -0.093181
v -0.449720 16.235601 -0.089604
v -0.434271 16.235601 -0.147260
v -0.383565 16.235601 0.329047
v -0.329047 16.235601 0.383565
v -0.302460 16.235601 0.344667
v -0.344667 16.235601 0.302460
v 0.093181 16.235601 0.496701
v 0.167653 16.235601 0.476746
v 0.147260 16.235601 0.434271
v 0.089604 16.235601 0.449720
v 0.476746 16.235601 0.167653
v 0.496701 16.235601 0.093181
v 0.449720 16.235601 0.089604
v 0.434271 16.235601 0.147260
v 0.621805 17.565278 -0.553857
v 0.553892 17.565278 -0.621770
v 0.535810 17.565278 -0.590452
v 0.590487 17.565278 -0.535776
v -0.167407 17.565278 -0.815846
v -0.265120 17.565278 -0.789663
v -0.246075 17.565278 -0.756677
v -0.167407 17.565278 -0.777756
v -0.789409 17.565278 -0.261472
v -0.813637 17.565278 -0.171055
v -0.778391 17.565278 -0.171055
v -0.758886 17.565278 -0.243849
v -0.619866 17.565278 0.554981
v -0.555016 17.565278 0.619831
v -0.537750 17.565278 0.589925
v -0.589960 17.565278 0.537715
v 0.166077 17.565278 0.816651
v 0.266450 17.565278 0.789756
v 0.246887 17.565278 0.755871
v 0.166077 17.565278 0.777524
v 0.789555 17.565278 0.263560
v 0.814901 17.565278 0.168967
v 0.778028 17.565278 0.168967
v 0.757621 17.565278 0.245123
v 0.630883 17.198001 -0.557537
v 0.557517 17.198001 -0.630928
v 0.537983 17.198001 -0.597093
v 0.597050 17.198001 -0.538006
v -0.166365 17.198003 -0.825688
v -0.270554 17.198001 -0.797796
v -0.250247 17.198001 -0.762620
v -0.166365 17.198003 -0.785076
v -0.797715 17.198003 -0.267677
v -0.824080 17.198001 -0.169308
v -0.785725 17.198001 -0.169306
v -0.764499 17.198001 -0.248502
v -0.629615 17.198001 0.558583
v -0.558660 17.198003 0.629515
v -0.539768 17.198001 0.596796
v -0.596894 17.198003 0.539690
v 0.165223 17.198001 0.826195
v 0.271513 17.198003 0.797689
v 0.250796 17.198003 0.761810
v 0.165223 17.198001 0.784760
v 0.797407 17.198001 0.269179
v 0.824647 17.198001 0.167491
v 0.785018 17.198001 0.167493
v 0.763087 17.198003 0.249362
v 0.615524 16.870149 -0.539248
v 0.539227 16.870151 -0.615571
v 0.518913 16.870151 -0.580384
v 0.580340 16.870151 -0.518937
v -0.158538 16.870151 -0.803134
v -0.265498 16.870149 -0.774503
v -0.244650 16.870151 -0.738391
v -0.158538 16.870151 -0.761444
v -0.774480 16.870149 -0.263541
v -0.802076 16.870149 -0.160579
v -0.761930 16.870151 -0.160576
v -0.739713 16.870151 -0.243471
v -0.614731 16.870149 0.540018
v -0.540077 16.870149 0.614646
v -0.520201 16.870149 0.580222
v -0.580304 16.870149 0.520140
v 0.157745 16.870149 0.803440
v 0.266138 16.870149 0.774368
v 0.245012 16.870151 0.737779
v 0.157745 16.870149 0.761185
v 0.774142 16.870151 0.264518
v 0.802333 16.870151 0.159281
v 0.761321 16.870149 0.159284
v 0.738625 16.870149 0.244009
v 0.519865 16.473693 -0.450057
v 0.450075 16.473783 -0.519872
v 0.431493 16.473804 -0.487686
v 0.487681 16.473733 -0.431478
v -0.129592 16.474510 -0.675487
v -0.225947 16.474632 -0.649694
v -0.207166 16.474609 -0.617163
v -0.129592 16.474510 -0.637930
v -0.649736 16.475166 -0.225254
v -0.675168 16.475196 -0.130366
v -0.638170 16.475149 -0.130364
v -0.617695 16.475124 -0.206758
v -0.519657 16.475002 0.450454
v -0.450450 16.474914 0.519636
v -0.432024 16.474889 0.487724
v -0.487742 16.474962 0.432026
v 0.129318 16.474183 0.675574
v 0.226188 16.474063 0.649593
v 0.207308 16.474084 0.616893
v 0.129318 16.474183 0.637811
v 0.649460 16.473529 0.225570
v 0.675100 16.473497 0.129854
v 0.637799 16.473546 0.129856
v 0.617155 16.473569 0.206917
v 0.000000 17.518901 0.000000
v 0.000000 16.235604 0.000000
vt 0.375000 0.312500
vt 0.395833 0.312500
vt 0.416667 0.312500
vt 0.437500 0.312500
vt 0.458333 0.312500
vt 0.479167 0.312500
vt 0.500000 0.312500
vt 0.520833 0.312500
vt 0.541667 0.312500
vt 0.562500 0.312500
vt 0.583333 0.312500
vt 0.604167 0.312500
vt 0.625000 0.312500
vt 0.375000 0.688440
vt 0.395833 0.688440
vt 0.416667 0.688440
vt 0.437500 0.688440
vt 0.458333 0.688440
vt 0.479167 0.688440
vt 0.500000 0.688440
vt 0.520833 0.688440
vt 0.541667 0.688440
vt 0.562500 0.688440
vt 0.583333 0.688440
vt 0.604167 0.688440
vt 0.625000 0.688440
vt 0.635316 0.765625
vt 0.578125 0.708434
vt 0.500000 0.687500
vt 0.421875 0.708434
vt 0.364684 0.765625
vt 0.343750 0.843750
vt 0.364684 0.921875
vt 0.421875 0.979066
vt 0.500000 1.000000
vt 0.578125 0.979066
vt 0.635316 0.921875
vt 0.656250 0.843750
vt 0.500000 0.837500
vt 0.635316 0.921875
vt 0.578125 0.979066
vt 0.500000 1.000000
vt 0.421875 0.979066
vt 0.364684 0.921875
vt 0.343750 0.843750
vt 0.364684 0.765625
vt 0.421875 0.708434
vt 0.500000 0.687500
vt 0.578125 0.708434
vt 0.635316 0.765625
vt 0.656250 0.843750
vt 0.635316 0.921875
vt 0.578125 0.979066
vt 0.500000 1.000000
vt 0.421875 0.979066
vt 0.364684 0.921875
vt 0.343750 0.843750
vt 0.364684 0.765625
vt 0.421875 0.708434
vt 0.500000 0.687500
vt 0.578125 0.708434
vt 0.635316 0.765625
vt 0.656250 0.843750
vt 0.000000 0.000000
vt 1.000000 0.000000
vt 0.500000 1.000000
vt 0.000000 0.000000
vt 1.000000 0.000000
vt 0.500000 1.000000
vt 0.000000 0.000000
vt 1.000000 0.000000
vt 0.500000 1.000000
vt 0.000000 0.000000
vt 1.000000 0.000000
vt 0.500000 1.000000
vt 0.000000 0.000000
vt 1.000000 0.000000
vt 0.500000 1.000000
vt 0.000000 0.000000
vt 1.000000 0.000000
vt 0.500000 1.000000
vt 0.000000 0.000000
vt 1.000000 0.000000
vt 0.500000 1.000000
vt 0.000000 0.000000
vt 1.000000 0.000000
vt 0.500000 1.000000
vt 0.000000 0.000000
vt 1.000000 0.000000
vt 0.500000 1.000000
vt 0.000000 0.000000
vt 1.000000 0.000000
vt 0.500000 1.000000
vt 0.000000 0.000000
vt 1.000000 0.000000
vt 0.500000 1.000000
vt 0.000000 0.000000
vt 1.000000 0.000000
vt 0.500000 1.000000
vt 0.635316 0.921875
vt 0.578125 0.979066
vt 0.500000 1.000000
vt 0.421875 0.979066
vt 0.364684 0.921875
vt 0.343750 0.843750
vt 0.364684 0.765625
vt 0.421875 0.708434
vt 0.500000 0.687500
vt 0.578125 0.708434
vt 0.635316 0.765625
vt 0.656250 0.843750
vt 0.635316 0.921875
vt 0.578125 0.979066
vt 0.500000 1.000000
vt 0.421875 0.979066
vt 0.364684 0.921875
vt 0.343750 0.843750
vt 0.364684 0.765625
vt 0.421875 0.708434
vt 0.500000 0.687500
vt 0.578125 0.708434
vt 0.635316 0.765625
vt 0.656250 0.843750
vt 0.635316 0.921875
vt 0.578125 0.979066
vt 0.500000 1.000000
vt 0.421875 0.979066
vt 0.364684 0.921875
vt 0.343750 0.843750
vt 0.364684 0.765625
vt 0.421875 0.708434
vt 0.500000 0.687500
vt 0.578125 0.708434
vt 0.635316 0.765625
vt 0.656250 0.843750
vt 0.635316 0.921875
vt 0.578125 0.979066
vt 0.500000 1.000000
vt 0.421875 0.979066
vt 0.364684 0.921875
vt 0.343750 0.843750
vt 0.364684 0.765625
vt 0.421875 0.708434
vt 0.500000 0.687500
vt 0.578125 0.708434
vt 0.635316 0.765625
vt 0.656250 0.843750
vt 0.635316 0.921875
vt 0.578125 0.979066
vt 0.500000 1.000000
vt 0.421875 0.979066
vt 0.364684 0.921875
vt 0.343750 0.843750
vt 0.364684 0.765625
vt 0.421875 0.708434
vt 0.500000 0.687500
vt 0.578125 0.708434
vt 0.635316 0.765625
vt 0.656250 0.843750
vt 0.635316 0.921875
vt 0.578125 0.979066
vt 0.500000 1.000000
vt 0.421875 0.979066
vt 0.364684 0.921875
vt 0.343750 0.843750
vt 0.364684 0.765625
vt 0.421875 0.708434
vt 0.500000 0.687500
vt 0.578125 0.708434
vt 0.635316 0.765625
vt 0.656250 0.843750
vt 0.635316 0.921875
vt 0.578125 0.979066
vt 0.500000 1.000000
vt 0.421875 0.979066
vt 0.364684 0.921875
vt 0.343750 0.843750
vt 0.364684 0.765625
vt 0.421875 0.708434
vt 0.500000 0.687500
vt 0.578125 0.708434
vt 0.635316 0.765625
vt 0.656250 0.843750
vt 0.635316 0.921875
vt 0.578125 0.979066
vt 0.500000 1.000000
vt 0.421875 0.979066
vt 0.364684 0.921875
vt 0.343750 0.843750
vt 0.364684 0.765625
vt 0.421875 0.708434
vt 0.500000 0.687500
vt 0.578125 0.708434
vt 0.635316 0.765625
vt 0.656250 0.843750
vt 0.635316 0.921875
vt 0.578125 0.979066
vt 0.500000 1.000000
vt 0.421875 0.979066
vt 0.364684 0.921875
vt 0.343750 0.843750
vt 0.364684 0.765625
vt 0.421875 0.708434
vt 0.500000 0.687500
vt 0.578125 0.708434
vt 0.635316 0.765625
vt 0.656250 0.843750
vt 0.635316 0.921875
vt 0.578125 0.979066
vt 0.500000 1.000000
vt 0.421875 0.979066
vt 0.364684 0.921875
vt 0.343750 0.843750
vt 0.364684 0.765625
vt 0.421875 0.708434
vt 0.500000 0.687500
vt 0.578125 0.708434
vt 0.635316 0.765625
vt 0.656250 0.843750
vt 0.635316 0.921875
vt 0.578125 0.979066
vt 0.500000 1.000000
vt 0.421875 0.979066
vt 0.364684 0.921875
vt 0.343750 0.843750
vt 0.364684 0.765625
vt 0.421875 0.708434
vt 0.500000 0.687500
vt 0.578125 0.708434
vt 0.635316 0.765625
vt 0.656250 0.843750
vt 0.635316 0.921875
vt 0.578125 0.979066
vt 0.500000 1.000000
vt 0.421875 0.979066
vt 0.364684 0.921875
vt 0.343750 0.843750
vt 0.364684 0.765625
vt 0.421875 0.708434
vt 0.500000 0.687500
vt 0.578125 0.708434
vt 0.635316 0.765625
vt 0.656250 0.843750
vt 0.635316 0.921875
vt 0.578125 0.979066
vt 0.500000 1.000000
vt 0.421875 0.979066
vt 0.364684 0.921875
vt 0.343750 0.843750
vt 0.364684 0.765625
vt 0.421875 0.708434
vt 0.500000 0.687500
vt 0.578125 0.708434
vt 0.635316 0.765625
vt 0.656250 0.843750
vt 0.635316 0.921875
vt 0.578125 0.979066
vt 0.500000 1.000000
vt 0.421875 0.979066
vt 0.364684 0.921875
vt 0.343750 0.843750
vt 0.364684 0.765625
vt 0.421875 0.708434
vt 0.500000 0.687500
vt 0.578125 0.708434
vt 0.635316 0.765625
vt 0.656250 0.843750
vt 0.635316 0.921875
vt 0.578125 0.979066
vt 0.500000 1.000000
vt 0.421875 0.979066
vt 0.364684 0.921875
vt 0.343750 0.843750
vt 0.364684 0.765625
vt 0.421875 0.708434
vt 0.500000 0.687500
vt 0.578125 0.708434
vt 0.635316 0.765625
vt 0.656250 0.843750
vt 0.635316 0.921875
vt 0.578125 0.979066
vt 0.500000 1.000000
vt 0.421875 0.979066
vt 0.364684 0.921875
vt 0.343750 0.843750
vt 0.364684 0.765625
vt 0.421875 0.708434
vt 0.500000 0.687500
vt 0.578125 0.708434
vt 0.635316 0.765625
vt 0.656250 0.843750
vt 0.635316 0.921875
vt 0.578125 0.979066
vt 0.500000 1.000000
vt 0.421875 0.979066
vt 0.364684 0.921875
vt 0.343750 0.843750
vt 0.364684 0.765625
vt 0.421875 0.708434
vt 0.500000 0.687500
vt 0.578125 0.708434
vt 0.635316 0.765625
vt 0.656250 0.843750
vt 0.635316 0.921875
vt 0.578125 0.979066
vt 0.500000 1.000000
vt 0.421875 0.979066
vt 0.364684 0.921875
vt 0.343750 0.843750
vt 0.364684 0.765625
vt 0.421875 0.708434
vt 0.500000 0.687500
vt 0.578125 0.708434
vt 0.635316 0.765625
vt 0.656250 0.843750
vt 0.635316 0.921875
vt 0.578125 0.979066
vt 0.500000 1.000000
vt 0.421875 0.979066
vt 0.364684 0.921875
vt 0.343750 0.843750
vt 0.364684 0.765625
vt 0.421875 0.708434
vt 0.500000 0.687500
vt 0.578125 0.708434
vt 0.635316 0.765625
vt 0.656250 0.843750
vt 0.635316 0.921875
vt 0.578125 0.979066
vt 0.500000 1.000000
vt 0.421875 0.979066
vt 0.364684 0.921875
vt 0.343750 0.843750
vt 0.364684 0.765625
vt 0.421875 0.708434
vt 0.500000 0.687500
vt 0.578125 0.708434
vt 0.635316 0.765625
vt 0.656250 0.843750
vt 0.578125 0.708434
vt 0.500000 0.687500
vt 0.421875 0.708434
vt 0.364684 0.765625
vt 0.343750 0.843750
vt 0.364684 0.921875
vt 0.421875 0.979066
vt 0.500000 1.000000
vt 0.578125 0.979066
vt 0.635316 0.921875
vt 0.656250 0.843750
vt 0.635316 0.765625
vt 0.635316 0.921875
vt 0.578125 0.979066
vt 0.500000 1.000000
vt 0.421875 0.979066
vt 0.364684 0.921875
vt 0.343750 0.843750
vt 0.364684 0.765625
vt 0.421875 0.708434
vt 0.500000 0.687500
vt 0.578125 0.708434
vt 0.635316 0.765625
vt 0.656250 0.843750
vt 0.635316 0.921875
vt 0.578125 0.979066
vt 0.500000 1.000000
vt 0.421875 0.979066
vt 0.364684 0.921875
vt 0.343750 0.843750
vt 0.364684 0.765625
vt 0.421875 0.708434
vt 0.500000 0.687500
vt 0.578125 0.708434
vt 0.635316 0.765625
vt 0.656250 0.843750
vt 0.635316 0.921875
vt 0.578125 0.979066
vt 0.578125 0.979066
vt 0.635316 0.921875
vt 0.500000 1.000000
vt 0.500000 1.000000
vt 0.421875 0.979066
vt 0.421875 0.979066
vt 0.364684 0.921875
vt 0.364684 0.921875
vt 0.343750 0.843750
vt 0.343750 0.843750
vt 0.364684 0.765625
vt 0.364684 0.765625
vt 0.421875 0.708434
vt 0.421875 0.708434
vt 0.500000 0.687500
vt 0.500000 0.687500
vt 0.578125 0.708434
vt 0.578125 0.708434
vt 0.635316 0.765625
vt 0.635316 0.765625
vt 0.656250 0.843750
vt 0.656250 0.843750
vt 0.635316 0.765625
vt 0.578125 0.708434
vt 0.500000 0.687500
vt 0.421875 0.708434
vt 0.364684 0.765625
vt 0.343750 0.843750
vt 0.364684 0.921875
vt 0.421875 0.979066
vt 0.500000 1.000000
vt 0.578125 0.979066
vt 0.635316 0.921875
vt 0.656250 0.843750
vt 0.635316 0.921875
vt 0.578125 0.979066
vt 0.578125 0.979066
vt 0.635316 0.921875
vt 0.500000 1.000000
vt 0.500000 1.000000
vt 0.421875 0.979066
vt 0.421875 0.979066
vt 0.364684 0.921875
vt 0.364684 0.921875
vt 0.343750 0.843750
vt 0.343750 0.843750
vt 0.364684 0.765625
vt 0.364684 0.765625
vt 0.421875 0.708434
vt 0.421875 0.708434
vt 0.500000 0.687500
vt 0.500000 0.687500
vt 0.578125 0.708434
vt 0.578125 0.708434
vt 0.635316 0.765625
vt 0.635316 0.765625
vt 0.656250 0.843750
vt 0.656250 0.843750
vt 0.656250 0.843750
vt 0.635316 0.765625
vt 0.578125 0.708434
vt 0.500000 0.687500
vt 0.421875 0.708434
vt 0.364684 0.765625
vt 0.343750 0.843750
vt 0.364684 0.921875
vt 0.421875 0.979066
vt 0.500000 1.000000
vt 0.578125 0.979066
vt 0.635316 0.921875
vt 0.635316 0.921875
vt 0.578125 0.979066
vt 0.578125 0.979066
vt 0.635316 0.921875
vt 0.500000 1.000000
vt 0.500000 1.000000
vt 0.421875 0.979066
vt 0.421875 0.979066
vt 0.364684 0.921875
vt 0.364684 0.921875
vt 0.343750 0.843750
vt 0.343750 0.843750
vt 0.364684 0.765625
vt 0.364684 0.765625
vt 0.421875 0.708434
vt 0.421875 0.708434
vt 0.500000 0.687500
vt 0.500000 0.687500
vt 0.578125 0.708434
vt 0.578125 0.708434
vt 0.635316 0.765625
vt 0.635316 0.765625
vt 0.656250 0.843750
vt 0.656250 0.843750
vt 0.656250 0.843750
vt 0.635316 0.765625
vt 0.578125 0.708434
vt 0.500000 0.687500
vt 0.421875 0.708434
vt 0.364684 0.765625
vt 0.343750 0.843750
vt 0.364684 0.921875
vt 0.421875 0.979066
vt 0.500000 1.000000
vt 0.578125 0.979066
vt 0.635316 0.921875
vt 0.656250 0.843750
vt 0.635316 0.765625
vt 0.578125 0.708434
vt 0.500000 0.687500
vt 0.421875 0.708434
vt 0.364684 0.765625
vt 0.343750 0.843750
vt 0.364684 0.921875
vt 0.421875 0.979066
vt 0.500000 1.000000
vt 0.578125 0.979066
vt 0.635316 0.921875
vt 0.635316 0.765625
vt 0.656250 0.843750
vt 0.656250 0.843750
vt 0.635316 0.765625
vt 0.578125 0.708434
vt 0.578125 0.708434
vt 0.500000 0.687500
vt 0.500000 0.687500
vt 0.421875 0.708434
vt 0.421875 0.708434
vt 0.364684 0.765625
vt 0.364684 0.765625
vt 0.343750 0.843750
vt 0.343750 0.843750
vt 0.364684 0.921875
vt 0.364684 0.921875
vt 0.421875 0.979066
vt 0.421875 0.979066
vt 0.500000 1.000000
vt 0.500000 1.000000
vt 0.578125 0.979066
vt 0.578125 0.979066
vt 0.635316 0.921875
vt 0.635316 0.921875
vt 0.656250 0.843750
vt 0.635316 0.765625
vt 0.578125 0.708434
vt 0.500000 0.687500
vt 0.421875 0.708434
vt 0.364684 0.765625
vt 0.343750 0.843750
vt 0.364684 0.921875
vt 0.421875 0.979066
vt 0.500000 1.000000
vt 0.578125 0.979066
vt 0.635316 0.921875
vt 0.656250 0.843750
vt 0.635316 0.765625
vt 0.578125 0.708434
vt 0.500000 0.687500
vt 0.421875 0.708434
vt 0.364684 0.765625
vt 0.343750 0.843750
vt 0.364684 0.921875
vt 0.421875 0.979066
vt 0.500000 1.000000
vt 0.578125 0.979066
vt 0.635316 0.921875
vt 0.656250 0.843750
vt 0.635316 0.765625
vt 0.578125 0.708434
vt 0.500000 0.687500
vt 0.421875 0.708434
vt 0.364684 0.765625
vt 0.343750 0.843750
vt 0.364684 0.921875
vt 0.421875 0.979066
vt 0.500000 1.000000
vt 0.578125 0.979066
vt 0.635316 0.921875
vt 0.656250 0.843750
vt 0.635316 0.765625
vt 0.578125 0.708434
vt 0.500000 0.687500
vt 0.421875 0.708434
vt 0.364684 0.765625
vt 0.343750 0.843750
vt 0.364684 0.921875
vt 0.421875 0.979066
vt 0.500000 1.000000
vt 0.578125 0.979066
vt 0.635316 0.921875
vt 0.635316 0.921875
vt 0.578125 0.979066
vt 0.578125 0.979066
vt 0.635316 0.921875
vt 0.500000 1.000000
vt 0.500000 1.000000
vt 0.421875 0.979066
vt 0.421875 0.979066
vt 0.364684 0.921875
vt 0.364684 0.921875
vt 0.343750 0.843750
vt 0.343750 0.843750
vt 0.364684 0.765625
vt 0.364684 0.765625
vt 0.421875 0.708434
vt 0.421875 0.708434
vt 0.500000 0.687500
vt 0.500000 0.687500
vt 0.578125 0.708434
vt 0.578125 0.708434
vt 0.635316 0.765625
vt 0.635316 0.765625
vt 0.656250 0.843750
vt 0.656250 0.843750
vt 0.656250 0.843750
vt 0.635316 0.765625
vt 0.578125 0.708434
vt 0.500000 0.687500
vt 0.421875 0.708434
vt 0.364684 0.765625
vt 0.343750 0.843750
vt 0.364684 0.921875
vt 0.421875 0.979066
vt 0.500000 1.000000
vt 0.578125 0.979066
vt 0.635316 0.921875
vt 0.635316 0.921875
vt 0.578125 0.979066
vt 0.578125 0.979066
vt 0.635316 0.921875
vt 0.500000 1.000000
vt 0.500000 1.000000
vt 0.421875 0.979066
vt 0.421875 0.979066
vt 0.364684 0.921875
vt 0.364684 0.921875
vt 0.343750 0.843750
vt 0.343750 0.843750
vt 0.364684 0.765625
vt 0.364684 0.765625
vt 0.421875 0.708434
vt 0.421875 0.708434
vt 0.500000 0.687500
vt 0.500000 0.687500
vt 0.578125 0.708434
vt 0.578125 0.708434
vt 0.635316 0.765625
vt 0.635316 0.765625
vt 0.656250 0.843750
vt 0.656250 0.843750
vt 0.656250 0.843750
vt 0.635316 0.765625
vt 0.578125 0.708434
vt 0.500000 0.687500
vt 0.421875 0.708434
vt 0.364684 0.765625
vt 0.343750 0.843750
vt 0.364684 0.921875
vt 0.421875 0.979066
vt 0.500000 1.000000
vt 0.578125 0.979066
vt 0.635316 0.921875
vt 0.635316 0.921875
vt 0.578125 0.979066
vt 0.578125 0.979066
vt 0.635316 0.921875
vt 0.500000 1.000000
vt 0.500000 1.000000
vt 0.421875 0.979066
vt 0.421875 0.979066
vt 0.364684 0.921875
vt 0.364684 0.921875
vt 0.343750 0.843750
vt 0.343750 0.843750
vt 0.364684 0.765625
vt 0.364684 0.765625
vt 0.421875 0.708434
vt 0.421875 0.708434
vt 0.500000 0.687500
vt 0.500000 0.687500
vt 0.578125 0.708434
vt 0.578125 0.708434
vt 0.635316 0.765625
vt 0.635316 0.765625
vt 0.656250 0.843750
vt 0.656250 0.843750
vt 0.656250 0.843750
vt 0.635316 0.765625
vt 0.578125 0.708434
vt 0.500000 0.687500
vt 0.421875 0.708434
vt 0.364684 0.765625
vt 0.343750 0.843750
vt 0.364684 0.921875
vt 0.421875 0.979066
vt 0.500000 1.000000
vt 0.578125 0.979066
vt 0.635316 0.921875
vt 0.635316 0.921875
vt 0.656250 0.843750
vt 0.635316 0.765625
vt 0.578125 0.708434
vt 0.500000 0.687500
vt 0.421875 0.708434
vt 0.364684 0.765625
vt 0.343750 0.843750
vt 0.364684 0.921875
vt 0.421875 0.979066
vt 0.500000 1.000000
vt 0.578125 0.979066
vt 0.635316 0.921875
vt 0.578125 0.979066
vt 0.578125 0.979066
vt 0.635316 0.921875
vt 0.500000 1.000000
vt 0.500000 1.000000
vt 0.421875 0.979066
vt 0.421875 0.979066
vt 0.364684 0.921875
vt 0.364684 0.921875
vt 0.343750 0.843750
vt 0.343750 0.843750
vt 0.364684 0.765625
vt 0.364684 0.765625
vt 0.421875 0.708434
vt 0.421875 0.708434
vt 0.500000 0.687500
vt 0.500000 0.687500
vt 0.578125 0.708434
vt 0.578125 0.708434
vt 0.635316 0.765625
vt 0.635316 0.765625
vt 0.656250 0.843750
vt 0.656250 0.843750
vt 0.656250 0.843750
vt 0.635316 0.765625
vt 0.578125 0.708434
vt 0.500000 0.687500
vt 0.421875 0.708434
vt 0.364684 0.765625
vt 0.343750 0.843750
vt 0.364684 0.921875
vt 0.421875 0.979066
vt 0.500000 1.000000
vt 0.578125 0.979066
vt 0.635316 0.921875
vt 0.656250 0.843750
vt 0.635316 0.765625
vt 0.578125 0.708434
vt 0.500000 0.687500
vt 0.421875 0.708434
vt 0.364684 0.765625
vt 0.343750 0.843750
vt 0.364684 0.921875
vt 0.421875 0.979066
vt 0.500000 1.000000
vt 0.578125 0.979066
vt 0.635316 0.921875
vt 0.656250 0.843750
vt 0.635316 0.765625
vt 0.578125 0.708434
vt 0.500000 0.687500
vt 0.421875 0.708434
vt 0.364684 0.765625
vt 0.343750 0.843750
vt 0.364684 0.921875
vt 0.421875 0.979066
vt 0.500000 1.000000
vt 0.578125 0.979066
vt 0.635316 0.921875
vt 0.635316 0.921875
vt 0.578125 0.979066
vt 0.500000 1.000000
vt 0.421875 0.979066
vt 0.364684 0.921875
vt 0.343750 0.843750
vt 0.364684 0.765625
vt 0.421875 0.708434
vt 0.500000 0.687500
vt 0.578125 0.708434
vt 0.635316 0.765625
vt 0.656250 0.843750
vt 0.635316 0.921875
vt 0.578125 0.979066
vt 0.500000 1.000000
vt 0.421875 0.979066
vt 0.364684 0.921875
vt 0.343750 0.843750
vt 0.364684 0.765625
vt 0.421875 0.708434
vt 0.500000 0.687500
vt 0.578125 0.708434
vt 0.635316 0.765625
vt 0.656250 0.843750
vt 0.635316 0.921875
vt 0.578125 0.979066
vt 0.500000 1.000000
vt 0.421875 0.979066
vt 0.364684 0.921875
vt 0.343750 0.843750
vt 0.364684 0.765625
vt 0.421875 0.708434
vt 0.500000 0.687500
vt 0.578125 0.708434
vt 0.635316 0.765625
vt 0.656250 0.843750
vt 0.635316 0.921875
vt 0.578125 0.979066
vt 0.500000 1.000000
vt 0.421875 0.979066
vt 0.364684 0.921875
vt 0.343750 0.843750
vt 0.364684 0.765625
vt 0.421875 0.708434
vt 0.500000 0.687500
vt 0.578125 0.708434
vt 0.635316 0.765625
vt 0.656250 0.843750
vt 0.635316 0.921875
vt 0.578125 0.979066
vt 0.500000 1.000000
vt 0.421875 0.979066
vt 0.364684 0.921875
vt 0.343750 0.843750
vt 0.364684 0.765625
vt 0.421875 0.708434
vt 0.500000 0.687500
vt 0.578125 0.708434
vt 0.635316 0.765625
vt 0.656250 0.843750
vt 0.635316 0.921875
vt 0.578125 0.979066
vt 0.500000 1.000000
vt 0.421875 0.979066
vt 0.364684 0.921875
vt 0.343750 0.843750
vt 0.364684 0.765625
vt 0.421875 0.708434
vt 0.500000 0.687500
vt 0.578125 0.708434
vt 0.635316 0.765625
vt 0.656250 0.843750
vt 0.635316 0.921875
vt 0.578125 0.979066
vt 0.500000 1.000000
vt 0.421875 0.979066
vt 0.364684 0.921875
vt 0.343750 0.843750
vt 0.364684 0.765625
vt 0.421875 0.708434
vt 0.500000 0.687500
vt 0.578125 0.708434
vt 0.635316 0.765625
vt 0.656250 0.843750
vt 0.635316 0.921875
vt 0.578125 0.979066
vt 0.500000 1.000000
vt 0.421875 0.979066
vt 0.364684 0.921875
vt 0.343750 0.843750
vt 0.364684 0.765625
vt 0.421875 0.708434
vt 0.500000 0.687500
vt 0.578125 0.708434
vt 0.635316 0.765625
vt 0.656250 0.843750
vt 0.635316 0.921875
vt 0.578125 0.979066
vt 0.500000 1.000000
vt 0.421875 0.979066
vt 0.364684 0.921875
vt 0.343750 0.843750
vt 0.364684 0.765625
vt 0.421875 0.708434
vt 0.500000 0.687500
vt 0.578125 0.708434
vt 0.635316 0.765625
vt 0.656250 0.843750
vt 0.635316 0.921875
vt 0.578125 0.979066
vt 0.500000 1.000000
vt 0.421875 0.979066
vt 0.364684 0.921875
vt 0.343750 0.843750
vt 0.364684 0.765625
vt 0.421875 0.708434
vt 0.500000 0.687500
vt 0.578125 0.708434
vt 0.635316 0.765625
vt 0.656250 0.843750
vt 0.635316 0.921875
vt 0.578125 0.979066
vt 0.500000 1.000000
vt 0.421875 0.979066
vt 0.364684 0.921875
vt 0.343750 0.843750
vt 0.364684 0.765625
vt 0.421875 0.708434
vt 0.500000 0.687500
vt 0.578125 0.708434
vt 0.635316 0.765625
vt 0.656250 0.843750
vt 0.635316 0.921875
vt 0.578125 0.979066
vt 0.500000 1.000000
vt 0.421875 0.979066
vt 0.364684 0.921875
vt 0.343750 0.843750
vt 0.364684 0.765625
vt 0.421875 0.708434
vt 0.500000 0.687500
vt 0.578125 0.708434
vt 0.635316 0.765625
vt 0.656250 0.843750
vt 0.635316 0.921875
vt 0.578125 0.979066
vt 0.500000 1.000000
vt 0.421875 0.979066
vt 0.364684 0.921875
vt 0.343750 0.843750
vt 0.364684 0.765625
vt 0.421875 0.708434
vt 0.500000 0.687500
vt 0.578125 0.708434
vt 0.635316 0.765625
vt 0.656250 0.843750
vt 0.635316 0.921875
vt 0.578125 0.979066
vt 0.500000 1.000000
vt 0.421875 0.979066
vt 0.364684 0.921875
vt 0.343750 0.843750
vt 0.364684 0.765625
vt 0.421875 0.708434
vt 0.500000 0.687500
vt 0.578125 0.708434
vt 0.635316 0.765625
vt 0.656250 0.843750
vt 0.635316 0.921875
vt 0.578125 0.979066
vt 0.500000 1.000000
vt 0.421875 0.979066
vt 0.364684 0.921875
vt 0.343750 0.843750
vt 0.364684 0.765625
vt 0.421875 0.708434
vt 0.500000 0.687500
vt 0.578125 0.708434
vt 0.635316 0.765625
vt 0.656250 0.843750
vt 0.635316 0.921875
vt 0.578125 0.979066
vt 0.500000 1.000000
vt 0.421875 0.979066
vt 0.364684 0.921875
vt 0.343750 0.843750
vt 0.364684 0.765625
vt 0.421875 0.708434
vt 0.500000 0.687500
vt 0.578125 0.708434
vt 0.635316 0.765625
vt 0.656250 0.843750
vt 0.635316 0.921875
vt 0.578125 0.979066
vt 0.500000 1.000000
vt 0.421875 0.979066
vt 0.364684 0.921875
vt 0.343750 0.843750
vt 0.364684 0.765625
vt 0.421875 0.708434
vt 0.500000 0.687500
vt 0.578125 0.708434
vt 0.635316 0.765625
vt 0.656250 0.843750
vt 0.635316 0.921875
vt 0.578125 0.979066
vt 0.500000 1.000000
vt 0.421875 0.979066
vt 0.364684 0.921875
vt 0.343750 0.843750
vt 0.364684 0.765625
vt 0.421875 0.708434
vt 0.500000 0.687500
vt 0.578125 0.708434
vt 0.635316 0.765625
vt 0.656250 0.843750
vt 0.635316 0.921875
vt 0.578125 0.979066
vt 0.500000 1.000000
vt 0.421875 0.979066
vt 0.364684 0.921875
vt 0.343750 0.843750
vt 0.364684 0.765625
vt 0.421875 0.708434
vt 0.500000 0.687500
vt 0.578125 0.708434
vt 0.635316 0.765625
vt 0.656250 0.843750
vt 0.635316 0.921875
vt 0.578125 0.979066
vt 0.500000 1.000000
vt 0.421875 0.979066
vt 0.364684 0.921875
vt 0.343750 0.843750
vt 0.364684 0.765625
vt 0.421875 0.708434
vt 0.500000 0.687500
vt 0.578125 0.708434
vt 0.635316 0.765625
vt 0.656250 0.843750
vt 0.635316 0.921875
vt 0.578125 0.979066
vt 0.500000 1.000000
vt 0.421875 0.979066
vt 0.364684 0.921875
vt 0.343750 0.843750
vt 0.364684 0.765625
vt 0.421875 0.708434
vt 0.500000 0.687500
vt 0.578125 0.708434
vt 0.635316 0.765625
vt 0.656250 0.843750
vt 0.635316 0.921875
vt 0.578125 0.979066
vt 0.500000 1.000000
vt 0.421875 0.979066
vt 0.364684 0.921875
vt 0.343750 0.843750
vt 0.364684 0.765625
vt 0.421875 0.708434
vt 0.500000 0.687500
vt 0.578125 0.708434
vt 0.635316 0.765625
vt 0.656250 0.843750
vt 0.635316 0.921875
vt 0.578125 0.979066
vt 0.500000 1.000000
vt 0.421875 0.979066
vt 0.364684 0.921875
vt 0.343750 0.843750
vt 0.364684 0.765625
vt 0.421875 0.708434
vt 0.500000 0.687500
vt 0.578125 0.708434
vt 0.635316 0.765625
vt 0.656250 0.843750
vt 0.635316 0.921875
vt 0.578125 0.979066
vt 0.500000 1.000000
vt 0.421875 0.979066
vt 0.364684 0.921875
vt 0.343750 0.843750
vt 0.364684 0.765625
vt 0.421875 0.708434
vt 0.500000 0.687500
vt 0.578125 0.708434
vt 0.635316 0.765625
vt 0.656250 0.843750
vt 0.635316 0.921875
vt 0.578125 0.979066
vt 0.500000 1.000000
vt 0.421875 0.979066
vt 0.364684 0.921875
vt 0.343750 0.843750
vt 0.364684 0.765625
vt 0.421875 0.708434
vt 0.500000 0.687500
vt 0.578125 0.708434
vt 0.635316 0.765625
vt 0.656250 0.843750
vt 0.500000 0.687500
vt 0.421875 0.708434
vt 0.364684 0.765625
vt 0.343750 0.843750
vt 0.364684 0.921875
vt 0.421875 0.979066
vt 0.500000 1.000000
vt 0.578125 0.979066
vt 0.635316 0.921875
vt 0.656250 0.843750
vt 0.635316 0.765625
vt 0.578125 0.708434
vt 0.578125 0.708434
vt 0.500000 0.687500
vt 0.421875 0.708434
vt 0.364684 0.765625
vt 0.343750 0.843750
vt 0.364684 0.921875
vt 0.421875 0.979066
vt 0.500000 1.000000
vt 0.578125 0.979066
vt 0.635316 0.921875
vt 0.656250 0.843750
vt 0.635316 0.765625
vt 0.635316 0.921875
vt 0.578125 0.979066
vt 0.578125 0.979066
vt 0.635316 0.921875
vt 0.500000 1.000000
vt 0.421875 0.979066
vt 0.421875 0.979066
vt 0.500000 1.000000
vt 0.364684 0.921875
vt 0.343750 0.843750
vt 0.343750 0.843750
vt 0.364684 0.921875
vt 0.364684 0.765625
vt 0.421875 0.708434
vt 0.421875 0.708434
vt 0.364684 0.765625
vt 0.500000 0.687500
vt 0.578125 0.708434
vt 0.578125 0.708434
vt 0.500000 0.687500
vt 0.635316 0.765625
vt 0.656250 0.843750
vt 0.656250 0.843750
vt 0.635316 0.765625
vt 0.635316 0.921875
vt 0.578125 0.979066
vt 0.578125 0.979066
vt 0.635316 0.921875
vt 0.500000 1.000000
vt 0.421875 0.979066
vt 0.421875 0.979066
vt 0.500000 1.000000
vt 0.364684 0.921875
vt 0.343750 0.843750
vt 0.343750 0.843750
vt 0.364684 0.921875
vt 0.364684 0.765625
vt 0.421875 0.708434
vt 0.421875 0.708434
vt 0.364684 0.765625
vt 0.500000 0.687500
vt 0.578125 0.708434
vt 0.578125 0.708434
vt 0.500000 0.687500
vt 0.635316 0.765625
vt 0.656250 0.843750
vt 0.656250 0.843750
vt 0.635316 0.765625
vt 0.635316 0.921875
vt 0.578125 0.979066
vt 0.578125 0.979066
vt 0.635316 0.921875
vt 0.500000 1.000000
vt 0.421875 0.979066
vt 0.421875 0.979066
vt 0.500000 1.000000
vt 0.364684 0.921875
vt 0.343750 0.843750
vt 0.343750 0.843750
vt 0.364684 0.921875
vt 0.364684 0.765625
vt 0.421875 0.708434
vt 0.421875 0.708434
vt 0.364684 0.765625
vt 0.500000 0.687500
vt 0.578125 0.708434
vt 0.578125 0.708434
vt 0.500000 0.687500
vt 0.635316 0.765625
vt 0.656250 0.843750
vt 0.656250 0.843750
vt 0.635316 0.765625
vt 0.635316 0.921875
vt 0.578125 0.979066
vt 0.578125 0.979066
vt 0.635316 0.921875
vt 0.500000 1.000000
vt 0.421875 0.979066
vt 0.421875 0.979066
vt 0.500000 1.000000
vt 0.364684 0.921875
vt 0.343750 0.843750
vt 0.343750 0.843750
vt 0.364684 0.921875
vt 0.364684 0.765625
vt 0.421875 0.708434
vt 0.421875 0.708434
vt 0.364684 0.765625
vt 0.500000 0.687500
vt 0.578125 0.708434
vt 0.578125 0.708434
vt 0.500000 0.687500
vt 0.635316 0.765625
vt 0.656250 0.843750
vt 0.656250 0.843750
vt 0.635316 0.765625
vt 0.635316 0.921875
vt 0.578125 0.979066
vt 0.578125 0.979066
vt 0.635316 0.921875
vt 0.500000 1.000000
vt 0.421875 0.979066
vt 0.421875 0.979066
vt 0.500000 1.000000
vt 0.364684 0.921875
vt 0.343750 0.843750
vt 0.343750 0.843750
vt 0.364684 0.921875
vt 0.364684 0.765625
vt 0.421875 0.708434
vt 0.421875 0.708434
vt 0.364684 0.765625
vt 0.500000 0.687500
vt 0.578125 0.708434
vt 0.578125 0.708434
vt 0.500000 0.687500
vt 0.635316 0.765625
vt 0.656250 0.843750
vt 0.656250 0.843750
vt 0.635316 0.765625
vt 0.000000 0.000000
vt 1.000000 0.000000
vt 0.500000 1.000000
vt 0.000000 0.000000
vt 1.000000 0.000000
vt 0.500000 1.000000
vt 0.000000 0.000000
vt 1.000000 0.000000
vt 0.500000 1.000000
vt 0.000000 0.000000
vt 1.000000 0.000000
vt 0.500000 1.000000
vt 0.000000 0.000000
vt 1.000000 0.000000
vt 0.500000 1.000000
vt 0.000000 0.000000
vt 1.000000 0.000000
vt 0.500000 1.000000
vt 0.000000 0.000000
vt 1.000000 0.000000
vt 0.500000 1.000000
vt 0.000000 0.000000
vt 1.000000 0.000000
vt 0.500000 1.000000
vt 0.000000 0.000000
vt 1.000000 0.000000
vt 0.500000 1.000000
vt 0.000000 0.000000
vt 1.000000 0.000000
vt 0.500000 1.000000
vt 0.000000 0.000000
vt 1.000000 0.000000
vt 0.500000 1.000000
vt 0.000000 0.000000
vt 1.000000 0.000000
vt 0.500000 1.000000
vt 0.000000 0.000000
vt 1.000000 0.000000
vt 0.500000 1.000000
vt 0.000000 0.000000
vt 1.000000 0.000000
vt 0.500000 1.000000
vt 0.000000 0.000000
vt 1.000000 0.000000
vt 0.500000 1.000000
vt 0.000000 0.000000
vt 1.000000 0.000000
vt 0.500000 1.000000
vt 0.000000 0.000000
vt 1.000000 0.000000
vt 0.500000 1.000000
vt 0.000000 0.000000
vt 1.000000 0.000000
vt 0.500000 1.000000
vt 0.000000 0.000000
vt 1.000000 0.000000
vt 0.500000 1.000000
vt 0.000000 0.000000
vt 1.000000 0.000000
vt 0.500000 1.000000
vt 0.000000 0.000000
vt 1.000000 0.000000
vt 0.500000 1.000000
vt 0.000000 0.000000
vt 1.000000 0.000000
vt 0.500000 1.000000
vt 0.000000 0.000000
vt 1.000000 0.000000
vt 0.500000 1.000000
vt 0.000000 0.000000
vt 1.000000 0.000000
vt 0.500000 1.000000
usemtl lambert3SG
f 119/140 120/141 132/154 131/153
f 120/141 121/142 133/155 132/154
f 121/142 122/143 134/156 133/155
f 122/143 123/144 135/157 134/156
f 123/144 124/145 136/158 135/157
f 124/145 125/146 137/159 136/158
f 125/146 126/147 138/160 137/159
f 126/147 127/148 139/161 138/160
f 127/148 128/149 140/162 139/161
f 128/149 129/150 141/163 140/162
f 129/150 130/151 142/164 141/163
f 130/151 119/152 131/165 142/164
f 131/176 132/175 144/180 143/179
f 132/175 133/174 145/181 144/180
f 133/174 134/173 146/182 145/181
f 134/173 135/172 147/183 146/182
f 135/172 136/171 148/184 147/183
f 136/171 137/170 149/185 148/184
f 137/170 138/169 150/186 149/185
f 138/169 139/168 151/187 150/186
f 139/168 140/167 152/188 151/187
f 140/167 141/166 153/189 152/188
f 141/166 142/177 154/190 153/189
f 142/177 131/176 143/179 154/190
f 143/179 144/180 156/192 155/191
f 144/180 145/181 157/193 156/192
f 145/181 146/182 158/194 157/193
f 146/182 147/183 159/195 158/194
f 147/183 148/184 160/196 159/195
f 148/184 149/185 161/197 160/196
f 149/185 150/186 162/198 161/197
f 150/186 151/187 163/199 162/198
f 151/187 152/188 164/200 163/199
f 152/188 153/189 165/201 164/200
f 153/189 154/190 166/202 165/201
f 154/190 143/179 155/191 166/202
f 120/203 119/204 167/205
f 121/206 120/207 167/208
f 122/209 121/210 167/211
f 123/212 122/213 167/214
f 124/215 123/216 167/217
f 125/218 124/219 167/220
f 126/221 125/222 167/223
f 127/224 126/225 167/226
f 128/227 127/228 167/229
f 129/230 128/231 167/232
f 130/233 129/234 167/235
f 119/236 130/237 167/238
f 444/515 445/516 477/548 478/549
f 445/516 448/519 476/547 477/548
f 448/519 450/521 475/546 476/547
f 450/521 452/523 474/545 475/546
f 452/523 454/525 473/544 474/545
f 454/525 456/527 472/543 473/544
f 456/527 458/529 471/542 472/543
f 458/529 460/531 470/541 471/542
f 460/531 462/533 469/540 470/541
f 462/533 464/535 468/539 469/540
f 464/535 466/537 479/550 468/539
f 466/537 444/515 478/549 479/550
f 168/239 169/240 181/252 180/251
f 169/240 170/241 182/253 181/252
f 170/241 171/242 183/254 182/253
f 171/242 172/243 184/255 183/254
f 172/243 173/244 185/256 184/255
f 173/244 174/245 186/257 185/256
f 174/245 175/246 187/258 186/257
f 175/246 176/247 188/259 187/258
f 176/247 177/248 189/260 188/259
f 177/248 178/249 190/261 189/260
f 178/249 179/250 191/262 190/261
f 179/250 168/239 180/251 191/262
f 480/551 481/552 514/585 515/586
f 481/552 484/555 513/584 514/585
f 484/555 486/557 512/583 513/584
f 486/557 488/559 511/582 512/583
f 488/559 490/561 510/581 511/582
f 490/561 492/563 509/580 510/581
f 492/563 494/565 508/579 509/580
f 494/565 496/567 507/578 508/579
f 496/567 498/569 506/577 507/578
f 498/569 500/571 505/576 506/577
f 500/571 502/573 504/575 505/576
f 502/573 480/551 515/586 504/575
f 192/263 193/264 205/276 204/275
f 193/264 194/265 206/277 205/276
f 194/265 195/266 207/278 206/277
f 195/266 196/267 208/279 207/278
f 196/267 197/268 209/280 208/279
f 197/268 198/269 210/281 209/280
f 198/269 199/270 211/282 210/281
f 199/270 200/271 212/283 211/282
f 200/271 201/272 213/284 212/283
f 201/272 202/273 214/285 213/284
f 202/273 203/274 215/286 214/285
f 203/274 192/263 204/275 215/286
f 516/587 517/588 550/621 551/622
f 517/588 520/591 549/620 550/621
f 520/591 522/593 548/619 549/620
f 522/593 524/595 547/618 548/619
f 524/595 526/597 546/617 547/618
f 526/597 528/599 545/616 546/617
f 528/599 530/601 544/615 545/616
f 530/601 532/603 543/614 544/615
f 532/603 534/605 542/613 543/614
f 534/605 536/607 541/612 542/613
f 536/607 538/609 540/611 541/612
f 538/609 516/587 551/622 540/611
f 216/287 217/288 562/633 563/634
f 217/288 218/289 561/632 562/633
f 218/289 219/290 560/631 561/632
f 219/290 220/291 559/630 560/631
f 220/291 221/292 558/629 559/630
f 221/292 222/293 557/628 558/629
f 222/293 223/294 556/627 557/628
f 223/294 224/295 555/626 556/627
f 224/295 225/296 554/625 555/626
f 225/296 226/297 553/624 554/625
f 226/297 227/298 552/623 553/624
f 227/298 216/287 563/634 552/623
f 228/299 229/300 241/312 240/311
f 229/300 230/301 242/313 241/312
f 230/301 231/302 243/314 242/313
f 231/302 232/303 244/315 243/314
f 232/303 233/304 245/316 244/315
f 233/304 234/305 246/317 245/316
f 234/305 235/306 247/318 246/317
f 235/306 236/307 248/319 247/318
f 236/307 237/308 249/320 248/319
f 237/308 238/309 250/321 249/320
f 238/309 239/310 251/322 250/321
f 239/310 228/299 240/311 251/322
f 240/311 241/312 253/324 252/323
f 241/312 242/313 254/325 253/324
f 242/313 243/314 255/326 254/325
f 243/314 244/315 256/327 255/326
f 244/315 245/316 257/328 256/327
f 245/316 246/317 258/329 257/328
f 246/317 247/318 259/330 258/329
f 247/318 248/319 260/331 259/330
f 248/319 249/320 261/332 260/331
f 249/320 250/321 262/333 261/332
f 250/321 251/322 263/334 262/333
f 251/322 240/311 252/323 263/334
f 252/323 253/324 610/681 611/682
f 253/324 254/325 609/680 610/681
f 254/325 255/326 608/679 609/680
f 255/326 256/327 607/678 608/679
f 256/327 257/328 606/677 607/678
f 257/328 258/329 605/676 606/677
f 258/329 259/330 604/675 605/676
f 259/330 260/331 603/674 604/675
f 260/331 261/332 602/673 603/674
f 261/332 262/333 601/672 602/673
f 262/333 263/334 600/671 601/672
f 263/334 252/323 611/682 600/671
f 636/707 637/708 638/709 639/710
f 637/708 640/711 641/712 638/709
f 640/711 642/713 643/714 641/712
f 642/713 644/715 645/716 643/714
f 644/715 646/717 647/718 645/716
f 646/717 648/719 649/720 647/718
f 648/719 650/721 651/722 649/720
f 650/721 652/723 653/724 651/722
f 652/723 654/725 655/726 653/724
f 654/725 656/727 657/728 655/726
f 656/727 658/729 659/730 657/728
f 658/729 636/707 639/710 659/730
f 276/347 277/348 670/741 671/742
f 277/348 278/349 669/740 670/741
f 278/349 279/350 668/739 669/740
f 279/350 280/351 667/738 668/739
f 280/351 281/352 666/737 667/738
f 281/352 282/353 665/736 666/737
f 282/353 283/354 664/735 665/736
f 283/354 284/355 663/734 664/735
f 284/355 285/356 662/733 663/734
f 285/356 286/357 661/732 662/733
f 286/357 287/358 660/731 661/732
f 287/358 276/347 671/742 660/731
f 288/359 289/360 301/372 300/371
f 289/360 290/361 302/373 301/372
f 290/361 291/362 303/374 302/373
f 291/362 292/363 304/375 303/374
f 292/363 293/364 305/376 304/375
f 293/364 294/365 306/377 305/376
f 294/365 295/366 307/378 306/377
f 295/366 296/367 308/379 307/378
f 296/367 297/368 309/380 308/379
f 297/368 298/369 310/381 309/380
f 298/369 299/370 311/382 310/381
f 299/370 288/359 300/371 311/382
f 672/743 673/744 706/777 707/778
f 673/744 676/747 705/776 706/777
f 676/747 678/749 704/775 705/776
f 678/749 680/751 703/774 704/775
f 680/751 682/753 702/773 703/774
f 682/753 684/755 701/772 702/773
f 684/755 686/757 700/771 701/772
f 686/757 688/759 699/770 700/771
f 688/759 690/761 698/769 699/770
f 690/761 692/763 697/768 698/769
f 692/763 694/765 696/767 697/768
f 694/765 672/743 707/778 696/767
f 708/779 709/780 742/813 743/814
f 709/780 712/783 741/812 742/813
f 712/783 714/785 740/811 741/812
f 714/785 716/787 739/810 740/811
f 716/787 718/789 738/809 739/810
f 718/789 720/791 737/808 738/809
f 720/791 722/793 736/807 737/808
f 722/793 724/795 735/806 736/807
f 724/795 726/797 734/805 735/806
f 726/797 728/799 733/804 734/805
f 728/799 730/801 732/803 733/804
f 730/801 708/779 743/814 732/803
f 324/395 325/396 337/408 336/407
f 325/396 326/397 338/409 337/408
f 326/397 327/398 339/410 338/409
f 327/398 328/399 340/411 339/410
f 328/399 329/400 341/412 340/411
f 329/400 330/401 342/413 341/412
f 330/401 331/402 343/414 342/413
f 331/402 332/403 344/415 343/414
f 332/403 333/404 345/416 344/415
f 333/404 334/405 346/417 345/416
f 334/405 335/406 347/418 346/417
f 335/406 324/395 336/407 347/418
f 756/827 757/828 758/829 759/830
f 757/828 760/831 761/832 758/829
f 760/831 762/833 763/834 761/832
f 762/833 764/835 765/836 763/834
f 764/835 766/837 767/838 765/836
f 766/837 768/839 769/840 767/838
f 768/839 770/841 771/842 769/840
f 770/841 772/843 773/844 771/842
f 772/843 774/845 775/846 773/844
f 774/845 776/847 777/848 775/846
f 776/847 778/849 779/850 777/848
f 778/849 756/827 759/830 779/850
f 348/419 349/420 361/432 360/431
f 349/420 350/421 362/433 361/432
f 350/421 351/422 363/434 362/433
f 351/422 352/423 364/435 363/434
f 352/423 353/424 365/436 364/435
f 353/424 354/425 366/437 365/436
f 354/425 355/426 367/438 366/437
f 355/426 356/427 368/439 367/438
f 356/427 357/428 369/440 368/439
f 357/428 358/429 370/441 369/440
f 358/429 359/430 371/442 370/441
f 359/430 348/419 360/431 371/442
f 360/431 361/432 373/444 372/443
f 361/432 362/433 374/445 373/444
f 362/433 363/434 375/446 374/445
f 363/434 364/435 376/447 375/446
f 364/435 365/436 377/448 376/447
f 365/436 366/437 378/449 377/448
f 366/437 367/438 379/450 378/449
f 367/438 368/439 380/451 379/450
f 368/439 369/440 381/452 380/451
f 369/440 370/441 382/453 381/452
f 370/441 371/442 383/454 382/453
f 371/442 360/431 372/443 383/454
f 155/191 156/192 445/516 444/515
f 169/240 168/239 447/518 446/517
f 156/192 157/193 448/519 445/516
f 170/241 169/240 446/517 449/520
f 157/193 158/194 450/521 448/519
f 171/242 170/241 449/520 451/522
f 158/194 159/195 452/523 450/521
f 172/243 171/242 451/522 453/524
f 159/195 160/196 454/525 452/523
f 173/244 172/243 453/524 455/526
f 160/196 161/197 456/527 454/525
f 174/245 173/244 455/526 457/528
f 161/197 162/198 458/529 456/527
f 175/246 174/245 457/528 459/530
f 162/198 163/199 460/531 458/529
f 176/247 175/246 459/530 461/532
f 163/199 164/200 462/533 460/531
f 177/248 176/247 461/532 463/534
f 164/200 165/201 464/535 462/533
f 178/249 177/248 463/534 465/536
f 165/201 166/202 466/537 464/535
f 179/250 178/249 465/536 467/538
f 166/202 155/191 444/515 466/537
f 168/239 179/250 467/538 447/518
f 469/540 468/539 465/536 463/534
f 470/541 469/540 463/534 461/532
f 471/542 470/541 461/532 459/530
f 472/543 471/542 459/530 457/528
f 473/544 472/543 457/528 455/526
f 474/545 473/544 455/526 453/524
f 475/546 474/545 453/524 451/522
f 476/547 475/546 451/522 449/520
f 477/548 476/547 449/520 446/517
f 478/549 477/548 446/517 447/518
f 479/550 478/549 447/518 467/538
f 468/539 479/550 467/538 465/536
f 180/251 181/252 481/552 480/551
f 193/264 192/263 483/554 482/553
f 181/252 182/253 484/555 481/552
f 194/265 193/264 482/553 485/556
f 182/253 183/254 486/557 484/555
f 195/266 194/265 485/556 487/558
f 183/254 184/255 488/559 486/557
f 196/267 195/266 487/558 489/560
f 184/255 185/256 490/561 488/559
f 197/268 196/267 489/560 491/562
f 185/256 186/257 492/563 490/561
f 198/269 197/268 491/562 493/564
f 186/257 187/258 494/565 492/563
f 199/270 198/269 493/564 495/566
f 187/258 188/259 496/567 494/565
f 200/271 199/270 495/566 497/568
f 188/259 189/260 498/569 496/567
f 201/272 200/271 497/568 499/570
f 189/260 190/261 500/571 498/569
f 202/273 201/272 499/570 501/572
f 190/261 191/262 502/573 500/571
f 203/274 202/273 501/572 503/574
f 191/262 180/251 480/551 502/573
f 192/263 203/274 503/574 483/554
f 505/576 504/575 503/574 501/572
f 506/577 505/576 501/572 499/570
f 507/578 506/577 499/570 497/568
f 508/579 507/578 497/568 495/566
f 509/580 508/579 495/566 493/564
f 510/581 509/580 493/564 491/562
f 511/582 510/581 491/562 489/560
f 512/583 511/582 489/560 487/558
f 513/584 512/583 487/558 485/556
f 514/585 513/584 485/556 482/553
f 515/586 514/585 482/553 483/554
f 504/575 515/586 483/554 503/574
f 204/275 205/276 517/588 516/587
f 217/288 216/287 519/590 518/589
f 205/276 206/277 520/591 517/588
f 218/289 217/288 518/589 521/592
f 206/277 207/278 522/593 520/591
f 219/290 218/289 521/592 523/594
f 207/278 208/279 524/595 522/593
f 220/291 219/290 523/594 525/596
f 208/279 209/280 526/597 524/595
f 221/292 220/291 525/596 527/598
f 209/280 210/281 528/599 526/597
f 222/293 221/292 527/598 529/600
f 210/281 211/282 530/601 528/599
f 223/294 222/293 529/600 531/602
f 211/282 212/283 532/603 530/601
f 224/295 223/294 531/602 533/604
f 212/283 213/284 534/605 532/603
f 225/296 224/295 533/604 535/606
f 213/284 214/285 536/607 534/605
f 226/297 225/296 535/606 537/608
f 214/285 215/286 538/609 536/607
f 227/298 226/297 537/608 539/610
f 215/286 204/275 516/587 538/609
f 216/287 227/298 539/610 519/590
f 541/612 540/611 539/610 537/608
f 542/613 541/612 537/608 535/606
f 543/614 542/613 535/606 533/604
f 544/615 543/614 533/604 531/602
f 545/616 544/615 531/602 529/600
f 546/617 545/616 529/600 527/598
f 547/618 546/617 527/598 525/596
f 548/619 547/618 525/596 523/594
f 549/620 548/619 523/594 521/592
f 550/621 549/620 521/592 518/589
f 551/622 550/621 518/589 519/590
f 540/611 551/622 519/590 539/610
f 565/635 564/636 588/659 589/660
f 568/639 565/635 589/660 590/661
f 570/641 568/639 590/661 591/662
f 572/643 570/641 591/662 592/663
f 574/645 572/643 592/663 593/664
f 576/647 574/645 593/664 594/665
f 578/649 576/647 594/665 595/666
f 580/651 578/649 595/666 596/667
f 582/653 580/651 596/667 597/668
f 584/655 582/653 597/668 598/669
f 586/657 584/655 598/669 599/670
f 564/636 586/657 599/670 588/659
f 553/624 552/623 564/636 565/635
f 239/310 238/309 567/638 566/637
f 554/625 553/624 565/635 568/639
f 238/309 237/308 569/640 567/638
f 555/626 554/625 568/639 570/641
f 237/308 236/307 571/642 569/640
f 556/627 555/626 570/641 572/643
f 236/307 235/306 573/644 571/642
f 557/628 556/627 572/643 574/645
f 235/306 234/305 575/646 573/644
f 558/629 557/628 574/645 576/647
f 234/305 233/304 577/648 575/646
f 559/630 558/629 576/647 578/649
f 233/304 232/303 579/650 577/648
f 560/631 559/630 578/649 580/651
f 232/303 231/302 581/652 579/650
f 561/632 560/631 580/651 582/653
f 231/302 230/301 583/654 581/652
f 562/633 561/632 582/653 584/655
f 230/301 229/300 585/656 583/654
f 563/634 562/633 584/655 586/657
f 229/300 228/299 587/658 585/656
f 552/623 563/634 586/657 564/636
f 228/299 239/310 566/637 587/658
f 589/660 588/659 566/637 567/638
f 590/661 589/660 567/638 569/640
f 591/662 590/661 569/640 571/642
f 592/663 591/662 571/642 573/644
f 593/664 592/663 573/644 575/646
f 594/665 593/664 575/646 577/648
f 595/666 594/665 577/648 579/650
f 596/667 595/666 579/650 581/652
f 597/668 596/667 581/652 583/654
f 598/669 597/668 583/654 585/656
f 599/670 598/669 585/656 587/658
f 588/659 599/670 587/658 566/637
f 601/672 600/671 624/695 625/696
f 602/673 601/672 625/696 626/697
f 603/674 602/673 626/697 627/698
f 604/675 603/674 627/698 628/699
f 605/676 604/675 628/699 629/700
f 606/677 605/676 629/700 630/701
f 607/678 606/677 630/701 631/702
f 608/679 607/678 631/702 632/703
f 609/680 608/679 632/703 633/704
f 610/681 609/680 633/704 634/705
f 611/682 610/681 634/705 635/706
f 600/671 611/682 635/706 624/695
f 613/684 612/683 780/851 781/852
f 614/685 613/684 781/852 782/853
f 615/686 614/685 782/853 783/854
f 616/687 615/686 783/854 784/855
f 617/688 616/687 784/855 785/856
f 618/689 617/688 785/856 786/857
f 619/690 618/689 786/857 787/858
f 620/691 619/690 787/858 788/859
f 621/692 620/691 788/859 789/860
f 622/693 621/692 789/860 790/861
f 623/694 622/693 790/861 791/862
f 612/683 623/694 791/862 780/851
f 625/696 624/695 612/683 613/684
f 626/697 625/696 613/684 614/685
f 627/698 626/697 614/685 615/686
f 628/699 627/698 615/686 616/687
f 629/700 628/699 616/687 617/688
f 630/701 629/700 617/688 618/689
f 631/702 630/701 618/689 619/690
f 632/703 631/702 619/690 620/691
f 633/704 632/703 620/691 621/692
f 634/705 633/704 621/692 622/693
f 635/706 634/705 622/693 623/694
f 624/695 635/706 623/694 612/683
f 264/335 265/336 637/708 636/707
f 277/348 276/347 639/710 638/709
f 265/336 266/337 640/711 637/708
f 278/349 277/348 638/709 641/712
f 266/337 267/338 642/713 640/711
f 279/350 278/349 641/712 643/714
f 267/338 268/339 644/715 642/713
f 280/351 279/350 643/714 645/716
f 268/339 269/340 646/717 644/715
f 281/352 280/351 645/716 647/718
f 269/340 270/341 648/719 646/717
f 282/353 281/352 647/718 649/720
f 270/341 271/342 650/721 648/719
f 283/354 282/353 649/720 651/722
f 271/342 272/343 652/723 650/721
f 284/355 283/354 651/722 653/724
f 272/343 273/344 654/725 652/723
f 285/356 284/355 653/724 655/726
f 273/344 274/345 656/727 654/725
f 286/357 285/356 655/726 657/728
f 274/345 275/346 658/729 656/727
f 287/358 286/357 657/728 659/730
f 275/346 264/335 636/707 658/729
f 276/347 287/358 659/730 639/710
f 661/732 660/731 299/370 298/369
f 662/733 661/732 298/369 297/368
f 663/734 662/733 297/368 296/367
f 664/735 663/734 296/367 295/366
f 665/736 664/735 295/366 294/365
f 666/737 665/736 294/365 293/364
f 667/738 666/737 293/364 292/363
f 668/739 667/738 292/363 291/362
f 669/740 668/739 291/362 290/361
f 670/741 669/740 290/361 289/360
f 671/742 670/741 289/360 288/359
f 660/731 671/742 288/359 299/370
f 300/371 301/372 673/744 672/743
f 313/384 312/383 675/746 674/745
f 301/372 302/373 676/747 673/744
f 314/385 313/384 674/745 677/748
f 302/373 303/374 678/749 676/747
f 315/386 314/385 677/748 679/750
f 303/374 304/375 680/751 678/749
f 316/387 315/386 679/750 681/752
f 304/375 305/376 682/753 680/751
f 317/388 316/387 681/752 683/754
f 305/376 306/377 684/755 682/753
f 318/389 317/388 683/754 685/756
f 306/377 307/378 686/757 684/755
f 319/390 318/389 685/756 687/758
f 307/378 308/379 688/759 686/757
f 320/391 319/390 687/758 689/760
f 308/379 309/380 690/761 688/759
f 321/392 320/391 689/760 691/762
f 309/380 310/381 692/763 690/761
f 322/393 321/392 691/762 693/764
f 310/381 311/382 694/765 692/763
f 323/394 322/393 693/764 695/766
f 311/382 300/371 672/743 694/765
f 312/383 323/394 695/766 675/746
f 697/768 696/767 695/766 693/764
f 698/769 697/768 693/764 691/762
f 699/770 698/769 691/762 689/760
f 700/771 699/770 689/760 687/758
f 701/772 700/771 687/758 685/756
f 702/773 701/772 685/756 683/754
f 703/774 702/773 683/754 681/752
f 704/775 703/774 681/752 679/750
f 705/776 704/775 679/750 677/748
f 706/777 705/776 677/748 674/745
f 707/778 706/777 674/745 675/746
f 696/767 707/778 675/746 695/766
f 312/383 313/384 709/780 708/779
f 325/396 324/395 711/782 710/781
f 313/384 314/385 712/783 709/780
f 326/397 325/396 710/781 713/784
f 314/385 315/386 714/785 712/783
f 327/398 326/397 713/784 715/786
f 315/386 316/387 716/787 714/785
f 328/399 327/398 715/786 717/788
f 316/387 317/388 718/789 716/787
f 329/400 328/399 717/788 719/790
f 317/388 318/389 720/791 718/789
f 330/401 329/400 719/790 721/792
f 318/389 319/390 722/793 720/791
f 331/402 330/401 721/792 723/794
f 319/390 320/391 724/795 722/793
f 332/403 331/402 723/794 725/796
f 320/391 321/392 726/797 724/795
f 333/404 332/403 725/796 727/798
f 321/392 322/393 728/799 726/797
f 334/405 333/404 727/798 729/800
f 322/393 323/394 730/801 728/799
f 335/406 334/405 729/800 731/802
f 323/394 312/383 708/779 730/801
f 324/395 335/406 731/802 711/782
f 733/804 732/803 731/802 729/800
f 734/805 733/804 729/800 727/798
f 735/806 734/805 727/798 725/796
f 736/807 735/806 725/796 723/794
f 737/808 736/807 723/794 721/792
f 738/809 737/808 721/792 719/790
f 739/810 738/809 719/790 717/788
f 740/811 739/810 717/788 715/786
f 741/812 740/811 715/786 713/784
f 742/813 741/812 713/784 710/781
f 743/814 742/813 710/781 711/782
f 732/803 743/814 711/782 731/802
f 745/816 744/815 803/874 792/863
f 746/817 745/816 792/863 793/864
f 747/818 746/817 793/864 794/865
f 748/819 747/818 794/865 795/866
f 749/820 748/819 795/866 796/867
f 750/821 749/820 796/867 797/868
f 751/822 750/821 797/868 798/869
f 752/823 751/822 798/869 799/870
f 753/824 752/823 799/870 800/871
f 754/825 753/824 800/871 801/872
f 755/826 754/825 801/872 802/873
f 744/815 755/826 802/873 803/874
f 336/407 337/408 757/828 756/827
f 755/826 744/815 759/830 758/829
f 337/408 338/409 760/831 757/828
f 754/825 755/826 758/829 761/832
f 338/409 339/410 762/833 760/831
f 753/824 754/825 761/832 763/834
f 339/410 340/411 764/835 762/833
f 752/823 753/824 763/834 765/836
f 340/411 341/412 766/837 764/835
f 751/822 752/823 765/836 767/838
f 341/412 342/413 768/839 766/837
f 750/821 751/822 767/838 769/840
f 342/413 343/414 770/841 768/839
f 749/820 750/821 769/840 771/842
f 343/414 344/415 772/843 770/841
f 748/819 749/820 771/842 773/844
f 344/415 345/416 774/845 772/843
f 747/818 748/819 773/844 775/846
f 345/416 346/417 776/847 774/845
f 746/817 747/818 775/846 777/848
f 346/417 347/418 778/849 776/847
f 745/816 746/817 777/848 779/850
f 347/418 336/407 756/827 778/849
f 744/815 745/816 779/850 759/830
f 781/852 780/851 275/346 274/345
f 782/853 781/852 274/345 273/344
f 783/854 782/853 273/344 272/343
f 784/855 783/854 272/343 271/342
f 785/856 784/855 271/342 270/341
f 786/857 785/856 270/341 269/340
f 787/858 786/857 269/340 268/339
f 788/859 787/858 268/339 267/338
f 789/860 788/859 267/338 266/337
f 790/861 789/860 266/337 265/336
f 791/862 790/861 265/336 264/335
f 780/851 791/862 264/335 275/346
f 793/864 792/863 804/875 805/876
f 794/865 793/864 805/876 806/877
f 795/866 794/865 806/877 807/878
f 796/867 795/866 807/878 808/879
f 797/868 796/867 808/879 809/880
f 798/869 797/868 809/880 810/881
f 799/870 798/869 810/881 811/882
f 800/871 799/870 811/882 812/883
f 801/872 800/871 812/883 813/884
f 802/873 801/872 813/884 814/885
f 803/874 802/873 814/885 815/886
f 792/863 803/874 815/886 804/875
f 805/876 804/875 359/430 358/429
f 806/877 805/876 358/429 357/428
f 807/878 806/877 357/428 356/427
f 808/879 807/878 356/427 355/426
f 809/880 808/879 355/426 354/425
f 810/881 809/880 354/425 353/424
f 811/882 810/881 353/424 352/423
f 812/883 811/882 352/423 351/422
f 813/884 812/883 351/422 350/421
f 814/885 813/884 350/421 349/420
f 815/886 814/885 349/420 348/419
f 804/875 815/886 348/419 359/430
